<?xml version="1.0" encoding="utf-8"?>
<!-- Generator: Adobe Illustrator 28.0.0, SVG Export Plug-In . SVG Version: 6.00 Build 0)  -->
<svg version="1.1" id="Layer_1" xmlns="http://www.w3.org/2000/svg" xmlns:xlink="http://www.w3.org/1999/xlink" x="0px" y="0px"
	 viewBox="0 0 881 190" style="enable-background:new 0 0 881 190;" xml:space="preserve">
<style type="text/css">
	.st0{fill:#32adff;;}
</style>
<path class="st0" d="M881,162.9V190h-33.9v-27.1H881z"/>
<path class="st0" d="M881,135.7v27.1h-33.9v-27.1H881z"/>
<path class="st0" d="M881,108.6v27.1h-33.9v-27.1H881z"/>
<path class="st0" d="M881,81.4v27.1h-33.9V81.4H881z"/>
<path class="st0" d="M881,54.3v27.2h-33.9V54.3H881z"/>
<path class="st0" d="M881,27.2v27.1h-33.9V27.2H881z"/>
<path class="st0" d="M881,0v27.2h-33.9V0H881z"/>
<path class="st0" d="M847.1,162.9V190h-33.9v-27.1H847.1z"/>
<path class="st0" d="M847.1,135.7v27.1h-33.9v-27.1H847.1z"/>
<path class="st0" d="M847.1,108.6v27.1h-33.9v-27.1H847.1z"/>
<path class="st0" d="M847.1,81.4v27.1h-33.9V81.4H847.1z"/>
<path class="st0" d="M847.1,54.3v27.2h-33.9V54.3H847.1z"/>
<path class="st0" d="M847.1,27.2v27.1h-33.9V27.2H847.1z"/>
<path class="st0" d="M847.1,0v27.2h-33.9V0H847.1z"/>
<path class="st0" d="M813.2,108.6v27.1l-33.9,0v-27.2H813.2z"/>
<path class="st0" d="M779.3,108.6v27.2h-33.9v-27.2H779.3z"/>
<path class="st0" d="M779.3,81.4v27.1h-33.9V81.4H779.3z"/>
<path class="st0" d="M779.3,54.3v27.2h-33.9V54.3H779.3z"/>
<path class="st0" d="M779.3,27.2v27.1h-33.9V27.2H779.3z"/>
<path class="st0" d="M779.3,0v27.2h-33.9V0H779.3z"/>
<path class="st0" d="M745.5,81.4v27.1h-33.9V81.4H745.5z"/>
<path class="st0" d="M745.5,54.3v27.2h-33.9V54.3H745.5z"/>
<path class="st0" d="M745.5,27.2v27.1h-33.9V27.2H745.5z"/>
<path class="st0" d="M745.5,0v27.2h-33.9V0H745.5z"/>
<path class="st0" d="M643.8,162.9V190h-33.9v-27.1H643.8z"/>
<path class="st0" d="M643.8,81.4v27.1h-33.9V81.4H643.8z"/>
<path class="st0" d="M643.8,54.3v27.2h-33.9V54.3H643.8z"/>
<path class="st0" d="M643.8,27.2v27.1h-33.9V27.2H643.8z"/>
<path class="st0" d="M609.9,162.9V190H576v-27.1H609.9z"/>
<path class="st0" d="M609.9,108.6l0,27.2H576v-27.2H609.9z"/>
<path class="st0" d="M609.9,81.4v27.1H576V81.4H609.9z"/>
<path class="st0" d="M609.9,54.3v27.2H576V54.3H609.9z"/>
<path class="st0" d="M609.9,27.2v27.1H576V27.2H609.9z"/>
<path class="st0" d="M609.9,0l0,27.2H576V0H609.9z"/>
<path class="st0" d="M576,162.9V190h-33.9v-27.1H576z"/>
<path class="st0" d="M576,135.7v27.1h-33.9v-27.1L576,135.7z"/>
<path class="st0" d="M576,108.6v27.2l-33.9,0v-27.1H576z"/>
<path class="st0" d="M576,0v27.2l-33.9,0V0H576z"/>
<path class="st0" d="M542.2,162.9V190h-33.9v-27.1H542.2z"/>
<path class="st0" d="M542.2,135.7v27.1h-33.9v-27.1H542.2z"/>
<path class="st0" d="M542.2,54.3v27.2h-33.9V54.3H542.2z"/>
<path class="st0" d="M542.2,27.2l0,27.1h-33.9V27.2L542.2,27.2z"/>
<path class="st0" d="M542.2,0v27.2l-33.9,0V0H542.2z"/>
<path class="st0" d="M508.3,162.9V190h-33.9v-27.1H508.3z"/>
<path class="st0" d="M508.3,54.3v27.2h-33.9V54.3H508.3z"/>
<path class="st0" d="M508.3,27.2v27.1h-33.9V27.2H508.3z"/>
<path class="st0" d="M406.6,135.7v27.1h-33.9v-27.1H406.6z"/>
<path class="st0" d="M406.6,108.6v27.1h-33.9v-27.1H406.6z"/>
<path class="st0" d="M406.6,81.4v27.1h-33.9V81.4H406.6z"/>
<path class="st0" d="M406.6,54.3v27.2h-33.9V54.3H406.6z"/>
<path class="st0" d="M406.6,27.2v27.1h-33.9V27.2H406.6z"/>
<path class="st0" d="M372.7,162.9l0,27.1h-33.9v-27.1H372.7z"/>
<path class="st0" d="M372.7,135.7v27.1h-33.9v-27.1H372.7z"/>
<path class="st0" d="M372.7,108.6v27.1h-33.9v-27.1H372.7z"/>
<path class="st0" d="M372.7,81.4v27.1h-33.9V81.4H372.7z"/>
<path class="st0" d="M372.7,54.3v27.2h-33.9V54.3H372.7z"/>
<path class="st0" d="M372.7,27.2v27.1h-33.9V27.2H372.7z"/>
<path class="st0" d="M372.7,0l0,27.2h-33.9V0H372.7z"/>
<path class="st0" d="M338.8,162.9V190H305v-27.1H338.8z"/>
<path class="st0" d="M338.8,0v27.2H305V0H338.8z"/>
<path class="st0" d="M305,162.9V190h-33.9v-27.1H305z"/>
<path class="st0" d="M305,135.7l0,27.1h-33.9v-27.1H305z"/>
<path class="st0" d="M305,108.6v27.1h-33.9v-27.1H305z"/>
<path class="st0" d="M305,81.4v27.1h-33.9V81.4H305z"/>
<path class="st0" d="M305,54.3v27.2h-33.9V54.3H305z"/>
<path class="st0" d="M305,27.2l0,27.1h-33.9V27.2L305,27.2z"/>
<path class="st0" d="M305,0v27.2l-33.9,0V0H305z"/>
<path class="st0" d="M271.1,135.7v27.1h-33.9v-27.1H271.1z"/>
<path class="st0" d="M271.1,108.6v27.1h-33.9v-27.1H271.1z"/>
<path class="st0" d="M271.1,81.4v27.1h-33.9V81.4H271.1z"/>
<path class="st0" d="M271.1,54.3v27.2h-33.9V54.3H271.1z"/>
<path class="st0" d="M271.1,27.2v27.1h-33.9V27.2H271.1z"/>
<path class="st0" d="M169.4,162.9V190h-33.9v-27.1H169.4z"/>
<path class="st0" d="M169.4,81.4v27.1h-33.9V81.4H169.4z"/>
<path class="st0" d="M169.4,54.3v27.2h-33.9V54.3H169.4z"/>
<path class="st0" d="M169.4,27.2v27.1h-33.9V27.2H169.4z"/>
<path class="st0" d="M135.5,162.9V190h-33.9v-27.1H135.5z"/>
<path class="st0" d="M135.5,108.6l0,27.2h-33.9v-27.2H135.5z"/>
<path class="st0" d="M135.5,81.4v27.1h-33.9V81.4H135.5z"/>
<path class="st0" d="M135.5,54.3v27.2h-33.9V54.3H135.5z"/>
<path class="st0" d="M135.5,27.2v27.1h-33.9V27.2H135.5z"/>
<path class="st0" d="M135.5,0l0,27.2h-33.9V0H135.5z"/>
<path class="st0" d="M101.7,162.9V190H67.8v-27.1H101.7z"/>
<path class="st0" d="M101.7,135.7v27.1H67.8v-27.1L101.7,135.7z"/>
<path class="st0" d="M101.7,108.6v27.2l-33.9,0v-27.1H101.7z"/>
<path class="st0" d="M101.7,0v27.2l-33.9,0V0H101.7z"/>
<path class="st0" d="M67.8,162.9V190H33.9v-27.1H67.8z"/>
<path class="st0" d="M67.8,135.7v27.1H33.9v-27.1H67.8z"/>
<path class="st0" d="M67.8,54.3v27.2H33.9V54.3H67.8z"/>
<path class="st0" d="M67.8,27.2l0,27.1H33.9V27.2L67.8,27.2z"/>
<path class="st0" d="M67.8,0v27.2l-33.9,0V0H67.8z"/>
<path class="st0" d="M33.9,162.9V190H0v-27.1H33.9z"/>
<path class="st0" d="M33.9,54.3v27.2H0V54.3H33.9z"/>
<path class="st0" d="M33.9,27.2v27.1H0V27.2H33.9z"/>
</svg>
