<svg width="1248" height="601" viewBox="0 0 1248 601" fill="none" xmlns="http://www.w3.org/2000/svg">
<g clip-path="url(#clip0_173_1094)">
<path d="M1240.7 86.7222V0H1212.76V56.7978H1167.51V143.52H1127.58V0H1095.63V83.6711H1051.69V0H1021.09V77.6862H983.815V0H939.871V35.9093H878.672V0H841.4V104.677H805.432V0H777.491V56.7978H725.572V125.565H676.311V29.9245H643.053V80.7374H613.757V20.8884H572.523V92.7072H511.273V0H462.012V44.828H420.726V0H383.507V41.8942H327.573V116.529H291.657V0H259.702V62.7827H214.403V0H191.779V38.8431H122.553V134.484H90.6508V0H42.693V53.864H0V1072H1248V86.7222H1240.7Z" fill="#62bcf8"/>
</g>
<g clip-path="url(#clip1_173_1094)">
<path d="M7.2979 514.278L7.2979 601L35.2386 601L35.2386 544.202L80.4859 544.202L80.4859 457.48L120.416 457.48L120.416 601L152.371 601L152.371 517.329L196.315 517.329L196.315 601L226.914 601L226.914 523.314L264.185 523.314L264.185 601L308.129 601L308.129 565.091L369.328 565.091L369.328 601L406.6 601L406.6 496.323L442.568 496.323L442.568 601L470.509 601L470.509 544.202L522.428 544.202L522.428 475.435L571.689 475.435L571.689 571.076L604.947 571.076L604.947 520.263L634.243 520.263L634.243 580.112L675.477 580.112L675.477 508.293L736.727 508.293L736.727 601L785.988 601L785.988 556.172L827.274 556.172L827.274 601L864.493 601L864.493 559.106L920.427 559.106L920.427 484.471L956.343 484.471L956.343 601L988.298 601L988.298 538.217L1033.6 538.217L1033.6 601L1056.22 601L1056.22 562.157L1125.45 562.157L1125.45 466.516L1157.35 466.516L1157.35 601L1205.31 601L1205.31 547.136L1248 547.136L1248 -471L4.96534e-05 -471L-3.64823e-05 514.278L7.2979 514.278Z" fill="#62bcf8"/>
</g>
<defs>
<clipPath id="clip0_173_1094">
<rect width="1248" height="459" fill="white"/>
</clipPath>
<clipPath id="clip1_173_1094">
<rect width="1248" height="459" fill="white" transform="translate(1248 601) rotate(-180)"/>
</clipPath>
</defs>
</svg>
