<svg width="73" height="18" viewBox="0 0 73 18" fill="none" xmlns="http://www.w3.org/2000/svg">
<path d="M3 5V2.5H5.5V-1.19209e-06H8V2.5H10.5V5H3ZM3 17.5V15H0.5V12.5H8V10H3V7.5H0.5V5H3V7.5H8V10H10.5V12.5H8V15H5.5V17.5H3ZM18 15V12.5H15.5V5H18V2.5H23V5H25.5V12.5H23V15H18ZM18 12.4H23V5.1H18V12.4ZM30.5 15V2.5H33V5H35.5V7.5H38V10H40.5V2.5H43V15H40.5V12.5H38V10H35.5V7.5H33V15H30.5ZM48 15V2.5H55.5V5H58V12.5H55.5V15H48ZM50.5 12.5H55.4V5H50.5V12.5ZM65.5 15V12.5H63V5H65.5V2.5H70.5V5H73V12.5H70.5V15H65.5ZM65.5 12.4H70.5V5.1H65.5V12.4Z" fill="#dcc8bb"/>
</svg>
