<svg width="88" height="18" viewBox="0 0 88 18" fill="none" xmlns="http://www.w3.org/2000/svg">
<path d="M3 5V2.5H5.5V-1.19209e-06H8V2.5H10.5V5H3ZM3 17.5V15H0.5V12.5H8V10H3V7.5H0.5V5H3V7.5H8V10H10.5V12.5H8V15H5.5V17.5H3ZM23 7.5V5H18V2.5H23V5H25.5V7.5H23ZM18 15V12.5H15.5V5H18V12.5H23V15H18ZM23 12.5V10H25.5V12.5H23ZM33 15V12.5H30.5V5H33V2.5H38V5H40.5V12.5H38V15H33ZM33 12.4H38V5.1H33V12.4ZM45.5 15V2.5H48V5H50.5V7.5H53V10H55.5V2.5H58V15H55.5V12.5H53V10H50.5V7.5H48V15H45.5ZM63 15V2.5H70.5V5H73V12.5H70.5V15H63ZM65.5 12.5H70.4V5H65.5V12.5ZM80.5 15V12.5H78V5H80.5V2.5H85.5V5H88V12.5H85.5V15H80.5ZM80.5 12.4H85.5V5.1H80.5V12.4Z" fill="#dcc8bb"/>
</svg>
