<svg version="1.1" id="Layer_1" xmlns="http://www.w3.org/2000/svg" xmlns:xlink="http://www.w3.org/1999/xlink" x="0px" y="0px"
	 width="100%" viewBox="0 0 807 219" enable-background="new 0 0 807 219" xml:space="preserve">
<path fill="transparent" opacity="1.000000" stroke="none" 
	d="
M808.000000,116.000000 
	C808.000000,150.629822 808.000000,185.259659 808.000000,220.000000 
	C705.645813,220.000000 603.291565,220.000000 500.670288,219.669418 
	C505.078674,217.834717 509.923920,216.691849 514.332336,214.619659 
	C515.767700,213.944946 516.911804,210.703979 516.613159,208.897171 
	C516.369934,207.425323 513.902832,205.520233 512.197998,205.257080 
	C508.627014,204.705856 504.822968,204.620102 501.271545,205.240967 
	C496.407074,206.091354 492.831512,203.992233 489.045837,201.643143 
	C479.254028,195.567032 472.868774,186.327118 465.683105,177.685364 
	C459.581940,170.347900 456.867401,162.664734 457.911377,153.261307 
	C458.423004,148.653000 458.000000,143.940918 458.000000,139.275803 
	C458.000000,110.785309 457.990997,82.294800 458.005371,53.804317 
	C458.009735,45.099438 460.093719,42.518856 468.543030,40.977726 
	C471.837463,40.376827 472.106903,38.268803 472.043488,35.531708 
	C471.974426,32.551216 470.364288,32.016609 467.839447,31.972214 
	C452.231842,31.697796 436.626312,31.306644 421.018951,31.015577 
	C415.855835,30.919289 410.644958,30.625662 405.549774,31.222958 
	C403.884979,31.418121 401.900726,33.941872 401.276550,35.806961 
	C400.969330,36.724987 403.262604,39.594917 404.666260,39.824257 
	C412.429749,41.092709 415.079865,43.660873 414.972321,51.482094 
	C414.721008,69.755562 414.327484,88.027107 413.961975,106.298836 
	C413.954376,106.678726 413.588074,107.051437 413.087524,107.997612 
	C408.376434,101.759109 403.943390,95.861237 399.481415,89.985313 
	C383.958984,69.544090 368.855865,48.761967 352.686768,28.845402 
	C346.216888,20.876062 337.763733,14.333150 329.537170,8.022399 
	C320.276123,0.918059 308.960785,2.031650 298.003113,1.894022 
	C290.304932,1.797333 283.219299,3.253929 276.989197,7.680151 
	C275.499786,8.738301 274.028992,11.488622 274.391205,13.027146 
	C274.767273,14.624640 277.274719,16.625818 279.028656,16.817665 
	C283.633514,17.321352 288.341064,16.793470 292.996277,16.973284 
	C294.975555,17.049736 297.343719,17.319807 298.816559,18.443632 
	C304.703857,22.935797 310.730469,27.379766 315.923889,32.616741 
	C324.684204,41.450497 331.865997,51.264271 329.017029,64.961800 
	C328.884186,65.600601 329.006042,66.291199 328.999115,66.957573 
	C328.666809,99.058655 328.324921,131.159653 328.005951,163.260864 
	C327.927063,171.202530 326.691528,172.653503 318.635223,174.038040 
	C315.588440,174.561646 313.867310,176.380890 314.089020,179.491730 
	C314.265747,181.972198 315.675690,183.032455 318.409119,183.061859 
	C338.515442,183.278198 358.619812,183.673645 378.725281,183.982193 
	C380.040771,184.002380 381.949341,184.267242 382.552948,183.551025 
	C383.746124,182.135300 384.785217,180.110992 384.782043,178.340286 
	C384.780090,177.228638 382.889221,175.337860 381.633911,175.139832 
	C374.316040,173.985382 372.009705,171.580002 372.004211,164.181580 
	C371.991180,146.520798 371.993774,128.860016 372.013824,111.199257 
	C372.015167,110.008186 372.214661,108.817352 372.366943,107.127686 
	C380.418793,117.559601 388.023438,127.460556 395.679657,137.321487 
	C412.034363,158.385757 428.194977,179.606934 444.907532,200.383804 
	C450.662750,207.538620 457.975586,213.385666 466.963531,216.455307 
	C470.917969,217.805893 474.984406,218.828506 479.000000,220.000000 
	C319.787140,220.000000 160.574280,220.000000 1.000000,220.000000 
	C1.000000,186.646637 1.000000,153.291977 1.338145,119.684097 
	C3.123199,125.488258 3.949047,131.779785 6.128751,137.560867 
	C13.929641,158.250626 28.430923,172.619812 49.409637,179.551849 
	C67.463570,185.517441 86.322159,185.676361 104.877274,182.795746 
	C125.253159,179.632446 138.799133,166.865509 146.992905,148.320465 
	C154.134872,132.155975 154.560516,114.971115 153.891724,97.709610 
	C153.843506,96.465302 152.467880,94.364403 151.480072,94.218895 
	C146.755569,93.522964 141.956406,93.221069 137.174667,93.071960 
	C134.598236,92.991631 133.078156,94.143913 132.914017,97.259689 
	C132.524139,104.660233 132.081039,112.101036 130.924850,119.409355 
	C128.347534,135.700668 121.851227,150.101990 108.177292,160.140579 
	C101.371719,165.136841 93.618088,169.107895 84.831291,167.295807 
	C67.856247,163.795105 58.769932,151.542053 53.057194,136.390518 
	C47.339180,121.224953 46.898273,105.484093 48.941963,89.518379 
	C50.883095,74.353912 55.904644,60.803288 67.355721,50.106319 
	C76.073647,41.962521 86.448509,39.891178 95.853798,44.991703 
	C105.072502,49.991047 111.385826,57.679768 114.943451,67.453575 
	C119.622047,80.307022 119.479103,80.235687 133.245819,80.079315 
	C137.042358,80.036201 138.117523,78.652512 138.060333,75.051285 
	C137.891022,64.388809 137.914764,53.720860 138.047745,43.057350 
	C138.092133,39.498745 136.917572,37.364021 133.560440,35.720627 
	C124.300293,31.187569 114.792992,27.290548 104.432037,27.049759 
	C89.228065,26.696421 73.570618,24.814350 58.885651,27.637337 
	C30.076157,33.175575 11.478354,51.512993 3.858342,80.277374 
	C2.911104,83.853050 1.953045,87.425858 1.000000,91.000000 
	C1.000000,61.013153 1.000000,31.026304 1.000002,1.046363 
	C270.000000,1.053272 539.000000,1.053272 808.000000,1.053272 
	C808.000000,34.425255 808.000000,67.743973 807.654297,101.301003 
	C806.317383,84.687035 801.452637,69.084526 790.840515,55.852390 
	C781.238220,43.879375 769.389648,34.469349 753.716064,32.151203 
	C744.763855,30.827158 735.537048,31.428951 726.443970,30.965651 
	C719.594238,30.616655 713.517883,32.793045 707.569763,35.835285 
	C706.493896,36.385597 704.962524,36.197220 703.655518,36.117760 
	C697.793396,35.761368 691.475220,33.692276 686.158508,35.197464 
	C664.885498,41.219936 652.657043,57.067497 645.034790,76.805733 
	C639.133240,92.088158 638.842957,108.043205 640.967224,124.135818 
	C644.366211,149.885025 657.622559,168.807327 680.379211,181.092575 
	C700.421570,191.912491 722.572754,190.942322 743.588196,188.382812 
	C776.427063,184.383301 797.115601,164.162430 805.102417,131.719864 
	C806.373901,126.555145 807.049133,121.243652 808.000000,116.000000 
M320.984497,134.320602 
	C322.316193,127.899170 324.393860,121.528915 324.838684,115.046623 
	C326.136017,96.140343 324.042511,77.676300 314.366058,60.867840 
	C305.865570,46.102104 293.851288,35.484993 277.533112,29.661074 
	C267.138611,25.951290 256.562988,27.514908 246.040237,26.971405 
	C238.910629,26.603161 232.331757,28.197527 225.973923,31.378752 
	C224.588440,32.071995 222.550873,31.482267 220.814255,31.449852 
	C214.549057,31.332912 207.632156,29.402439 202.134628,31.394583 
	C180.995483,39.054790 167.857819,55.111031 161.235367,76.133392 
	C156.220963,92.051163 155.493805,108.525063 159.012711,125.016838 
	C164.834015,152.299118 180.305527,171.807312 206.889160,180.672241 
	C227.818909,187.651733 249.587265,186.777786 271.078979,182.393402 
	C283.886383,179.780624 294.438446,172.630066 303.548920,163.642578 
	C311.623474,155.677032 316.924377,145.732422 320.984497,134.320602 
M579.003296,33.098721 
	C572.895569,32.737148 566.785217,32.030521 560.680664,32.077900 
	C541.412354,32.227440 522.081299,31.786459 502.896515,33.213905 
	C481.259949,34.823780 466.923218,48.444618 461.968201,69.494827 
	C460.090485,77.471977 460.505981,76.374657 467.922852,78.297401 
	C478.538025,81.049278 482.682556,76.317940 486.376404,67.625374 
	C489.357941,60.609028 494.835815,55.150013 502.412689,52.550335 
	C502.687592,52.877022 502.858063,52.984943 502.858215,53.093109 
	C502.910919,90.237930 503.094910,127.383659 502.862244,164.526779 
	C502.820068,171.264420 498.541412,176.130768 492.394623,176.223801 
	C491.245300,176.241196 489.465515,178.938995 489.261475,180.561417 
	C489.137665,181.545959 491.427429,183.775513 492.722931,183.848480 
	C503.313721,184.445038 513.927063,184.978973 524.530884,184.931198 
	C543.465820,184.845901 562.470520,185.250549 581.313354,183.765854 
	C601.937256,182.140808 616.903625,170.211411 626.642883,152.473557 
	C637.915405,131.943420 638.420227,109.660294 634.504089,87.144928 
	C632.348877,74.754181 627.032043,63.760548 618.726624,54.141506 
	C608.384338,42.163471 595.116333,35.990250 579.003296,33.098721 
z"/>
<path fill="#1c8de4" opacity="1.000000" stroke="none" 
	d="
M479.468536,220.000000 
	C474.984406,218.828506 470.917969,217.805893 466.963531,216.455307 
	C457.975586,213.385666 450.662750,207.538620 444.907532,200.383804 
	C428.194977,179.606934 412.034363,158.385757 395.679657,137.321487 
	C388.023438,127.460556 380.418793,117.559601 372.366943,107.127686 
	C372.214661,108.817352 372.015167,110.008186 372.013824,111.199257 
	C371.993774,128.860016 371.991180,146.520798 372.004211,164.181580 
	C372.009705,171.580002 374.316040,173.985382 381.633911,175.139832 
	C382.889221,175.337860 384.780090,177.228638 384.782043,178.340286 
	C384.785217,180.110992 383.746124,182.135300 382.552948,183.551025 
	C381.949341,184.267242 380.040771,184.002380 378.725281,183.982193 
	C358.619812,183.673645 338.515442,183.278198 318.409119,183.061859 
	C315.675690,183.032455 314.265747,181.972198 314.089020,179.491730 
	C313.867310,176.380890 315.588440,174.561646 318.635223,174.038040 
	C326.691528,172.653503 327.927063,171.202530 328.005951,163.260864 
	C328.324921,131.159653 328.666809,99.058655 328.999115,66.957573 
	C329.006042,66.291199 328.884186,65.600601 329.017029,64.961800 
	C331.865997,51.264271 324.684204,41.450497 315.923889,32.616741 
	C310.730469,27.379766 304.703857,22.935797 298.816559,18.443632 
	C297.343719,17.319807 294.975555,17.049736 292.996277,16.973284 
	C288.341064,16.793470 283.633514,17.321352 279.028656,16.817665 
	C277.274719,16.625818 274.767273,14.624640 274.391205,13.027146 
	C274.028992,11.488622 275.499786,8.738301 276.989197,7.680151 
	C283.219299,3.253929 290.304932,1.797333 298.003113,1.894022 
	C308.960785,2.031650 320.276123,0.918059 329.537170,8.022399 
	C337.763733,14.333150 346.216888,20.876062 352.686768,28.845402 
	C368.855865,48.761967 383.958984,69.544090 399.481415,89.985313 
	C403.943390,95.861237 408.376434,101.759109 413.087524,107.997612 
	C413.588074,107.051437 413.954376,106.678726 413.961975,106.298836 
	C414.327484,88.027107 414.721008,69.755562 414.972321,51.482094 
	C415.079865,43.660873 412.429749,41.092709 404.666260,39.824257 
	C403.262604,39.594917 400.969330,36.724987 401.276550,35.806961 
	C401.900726,33.941872 403.884979,31.418121 405.549774,31.222958 
	C410.644958,30.625662 415.855835,30.919289 421.018951,31.015577 
	C436.626312,31.306644 452.231842,31.697796 467.839447,31.972214 
	C470.364288,32.016609 471.974426,32.551216 472.043488,35.531708 
	C472.106903,38.268803 471.837463,40.376827 468.543030,40.977726 
	C460.093719,42.518856 458.009735,45.099438 458.005371,53.804317 
	C457.990997,82.294800 458.000000,110.785309 458.000000,139.275803 
	C458.000000,143.940918 458.423004,148.653000 457.911377,153.261307 
	C456.867401,162.664734 459.581940,170.347900 465.683105,177.685364 
	C472.868774,186.327118 479.254028,195.567032 489.045837,201.643143 
	C492.831512,203.992233 496.407074,206.091354 501.271545,205.240967 
	C504.822968,204.620102 508.627014,204.705856 512.197998,205.257080 
	C513.902832,205.520233 516.369934,207.425323 516.613159,208.897171 
	C516.911804,210.703979 515.767700,213.944946 514.332336,214.619659 
	C509.923920,216.691849 505.078674,217.834717 500.201630,219.669418 
	C493.312347,220.000000 486.624725,220.000000 479.468536,220.000000 
M368.997559,155.494659 
	C368.997559,131.162216 368.997559,106.829773 368.997559,82.497330 
	C372.002228,84.517250 373.741211,86.705276 375.429138,88.932007 
	C397.050293,117.454353 418.671814,145.976379 440.276154,174.511459 
	C449.294067,186.422348 457.983917,198.649933 470.196045,207.642563 
	C480.696594,215.374893 492.146362,219.298920 505.165558,214.930679 
	C508.227570,213.903320 511.048431,212.157196 513.980225,210.741745 
	C513.809937,210.297684 513.639587,209.853622 513.469299,209.409576 
	C512.543762,209.296204 511.540009,208.890366 510.704681,209.113892 
	C500.189850,211.927643 491.542572,207.747406 483.353088,201.893539 
	C473.150024,194.600372 466.842133,183.885757 459.013000,174.472443 
	C454.647156,169.223297 453.631470,163.847717 453.950226,157.507034 
	C454.475250,147.061935 454.882690,136.601028 454.943237,126.144478 
	C455.087006,101.321068 454.982147,76.496292 455.012848,51.672115 
	C455.023071,43.394108 458.053436,39.391796 465.753174,37.189461 
	C466.695740,36.919872 467.598694,36.511879 468.520020,36.168026 
	C468.444733,35.950989 468.369446,35.733955 468.294159,35.516922 
	C451.408203,35.516922 434.522278,35.516922 416.198730,35.516922 
	C429.571136,40.336685 431.123901,42.489536 430.954681,55.950859 
	C430.854614,63.909592 430.126038,71.861237 430.056396,79.819366 
	C429.907745,96.811852 430.011566,113.806496 429.983398,130.800201 
	C429.981476,131.957016 429.742035,133.113434 429.583893,134.531433 
	C428.790314,134.020187 428.433807,133.901245 428.246368,133.654068 
	C404.816010,102.759071 381.347870,71.892509 358.006073,40.930695 
	C349.490723,29.635435 340.797974,18.594473 328.530334,11.016965 
	C317.385376,4.132921 305.924316,2.781737 294.079254,9.040660 
	C292.482300,9.884497 291.252869,11.423798 289.853241,12.641062 
	C290.051636,13.093637 290.250000,13.546213 290.448395,13.998789 
	C302.941467,9.237322 313.293518,13.773023 322.037018,21.818281 
	C328.956360,28.185028 334.599976,35.922401 340.994629,42.881565 
	C344.421875,46.611359 345.232941,50.801708 345.066803,55.695454 
	C344.547943,70.975510 344.173706,86.264809 344.052734,101.552979 
	C343.886658,122.543983 344.029358,143.537277 343.987335,164.529480 
	C343.970581,172.904907 340.214569,177.050735 332.000122,178.066208 
	C331.481445,178.130356 331.004089,178.528778 330.415771,178.816559 
	C330.873962,179.343430 331.067627,179.767593 331.272614,179.773117 
	C347.047668,180.198288 362.823059,180.622543 378.600861,180.912903 
	C379.646027,180.932129 380.710327,179.912689 382.804413,178.848526 
	C371.213226,176.658203 368.998108,173.947052 368.997559,163.488831 
	C368.997437,161.156357 368.997559,158.823868 368.997559,155.494659 
z"/>
<path fill="#1c8de4" opacity="1.000000" stroke="none" 
	d="
M808.000000,115.535355 
	C807.049133,121.243652 806.373901,126.555145 805.102417,131.719864 
	C797.115601,164.162430 776.427063,184.383301 743.588196,188.382812 
	C722.572754,190.942322 700.421570,191.912491 680.379211,181.092575 
	C657.622559,168.807327 644.366211,149.885025 640.967224,124.135818 
	C638.842957,108.043205 639.133240,92.088158 645.034790,76.805733 
	C652.657043,57.067497 664.885498,41.219936 686.158508,35.197464 
	C691.475220,33.692276 697.793396,35.761368 703.655518,36.117760 
	C704.962524,36.197220 706.493896,36.385597 707.569763,35.835285 
	C713.517883,32.793045 719.594238,30.616655 726.443970,30.965651 
	C735.537048,31.428951 744.763855,30.827158 753.716064,32.151203 
	C769.389648,34.469349 781.238220,43.879375 790.840515,55.852390 
	C801.452637,69.084526 806.317383,84.687035 807.654297,101.769661 
	C808.000000,106.356903 808.000000,110.713799 808.000000,115.535355 
M655.996338,114.451035 
	C656.336670,118.572052 656.359436,122.748871 657.072083,126.804466 
	C660.212524,144.676132 668.610779,159.627869 682.914551,170.907730 
	C701.835754,185.828842 723.765198,188.825607 746.617126,184.728271 
	C771.491211,180.268387 788.686768,165.535400 798.491638,142.147385 
	C805.570618,125.261627 805.691162,107.612122 802.641418,90.230606 
	C797.809753,62.693623 777.099731,38.075359 748.429749,34.376553 
	C735.906250,32.760864 724.117065,35.005249 714.971497,44.607491 
	C705.890930,54.141426 703.594604,66.110970 704.246399,78.718452 
	C704.437256,82.410919 706.199829,86.022125 707.242004,89.670570 
	C707.816345,89.579765 708.390686,89.488960 708.965027,89.398155 
	C708.965027,87.686523 709.386292,85.840614 708.891052,84.286842 
	C706.901062,78.043571 708.376038,72.058075 710.178833,66.211426 
	C713.436218,55.647594 719.576904,46.943707 730.771423,44.469704 
	C742.048401,41.977497 752.627686,44.512653 760.506836,54.015717 
	C769.297668,64.618385 773.553284,77.212410 774.797363,90.557098 
	C775.790466,101.209724 775.608826,112.070854 774.862732,122.763672 
	C773.715759,139.203323 768.514221,154.185455 756.389099,166.163193 
	C739.685486,182.663788 712.490540,180.118866 698.922791,161.000778 
	C688.602478,146.458542 684.788208,129.950745 684.204285,112.720589 
	C683.813232,101.182167 684.703369,89.492584 686.206543,78.026154 
	C687.917358,64.976395 691.578735,52.359646 700.390015,41.919453 
	C701.029358,41.161880 701.120605,39.941696 701.771790,38.050385 
	C699.590942,38.544434 698.157349,38.663857 696.890869,39.187401 
	C681.765747,45.439632 671.132690,56.360580 663.883972,70.871262 
	C657.158386,84.334755 655.157532,98.625519 655.996338,114.451035 
M701.090271,158.293823 
	C703.037292,160.340256 704.929688,162.442062 706.940186,164.424164 
	C720.512024,177.804382 731.268494,174.480591 743.043335,162.055038 
	C755.596497,148.808197 759.442322,131.604721 759.913574,113.762276 
	C760.105225,106.505714 759.491455,99.212555 758.968994,91.955849 
	C758.051758,79.215836 754.608582,66.940178 746.335144,57.275394 
	C736.863281,46.210518 730.017334,43.154869 718.901245,56.620598 
	C712.744080,64.079231 711.632385,72.907082 711.924072,82.261093 
	C712.258789,92.992104 712.007324,92.999947 700.989990,92.999863 
	C692.124207,92.999794 692.127747,92.998688 689.497253,84.615128 
	C689.454773,84.479645 688.943542,84.491219 688.395813,84.384361 
	C687.929504,89.260536 686.953003,94.137306 687.107788,98.977943 
	C687.418457,108.700417 687.686462,118.507217 689.196716,128.086136 
	C690.861450,138.645050 694.229858,148.854935 701.090271,158.293823 
z"/>
<path fill="#1c8de4" opacity="1.000000" stroke="none" 
	d="
M1.000000,91.468658 
	C1.953045,87.425858 2.911104,83.853050 3.858342,80.277374 
	C11.478354,51.512993 30.076157,33.175575 58.885651,27.637337 
	C73.570618,24.814350 89.228065,26.696421 104.432037,27.049759 
	C114.792992,27.290548 124.300293,31.187569 133.560440,35.720627 
	C136.917572,37.364021 138.092133,39.498745 138.047745,43.057350 
	C137.914764,53.720860 137.891022,64.388809 138.060333,75.051285 
	C138.117523,78.652512 137.042358,80.036201 133.245819,80.079315 
	C119.479103,80.235687 119.622047,80.307022 114.943451,67.453575 
	C111.385826,57.679768 105.072502,49.991047 95.853798,44.991703 
	C86.448509,39.891178 76.073647,41.962521 67.355721,50.106319 
	C55.904644,60.803288 50.883095,74.353912 48.941963,89.518379 
	C46.898273,105.484093 47.339180,121.224953 53.057194,136.390518 
	C58.769932,151.542053 67.856247,163.795105 84.831291,167.295807 
	C93.618088,169.107895 101.371719,165.136841 108.177292,160.140579 
	C121.851227,150.101990 128.347534,135.700668 130.924850,119.409355 
	C132.081039,112.101036 132.524139,104.660233 132.914017,97.259689 
	C133.078156,94.143913 134.598236,92.991631 137.174667,93.071960 
	C141.956406,93.221069 146.755569,93.522964 151.480072,94.218895 
	C152.467880,94.364403 153.843506,96.465302 153.891724,97.709610 
	C154.560516,114.971115 154.134872,132.155975 146.992905,148.320465 
	C138.799133,166.865509 125.253159,179.632446 104.877274,182.795746 
	C86.322159,185.676361 67.463570,185.517441 49.409637,179.551849 
	C28.430923,172.619812 13.929641,158.250626 6.128751,137.560867 
	C3.949047,131.779785 3.123199,125.488258 1.338145,119.215439 
	C1.000000,109.979103 1.000000,100.958214 1.000000,91.468658 
M133.128448,74.946709 
	C135.541138,77.529510 134.972641,74.916298 134.977829,73.814568 
	C135.021591,64.486221 134.732193,55.146244 135.122192,45.834023 
	C135.307220,41.416267 133.574265,39.115421 129.866333,37.402382 
	C111.647102,28.985247 92.607857,26.877043 73.039246,30.585743 
	C56.865570,33.651028 43.349674,41.659725 32.938465,54.574291 
	C20.227283,70.341858 16.088247,88.843376 16.188589,108.552048 
	C16.211918,113.134338 17.299109,117.720901 18.007637,122.288300 
	C20.659414,139.382446 28.322163,153.920517 41.768177,164.746964 
	C59.404549,178.947372 79.939575,183.150040 102.142410,180.030319 
	C119.954025,177.527603 132.410110,167.392166 141.306274,152.323273 
	C147.438980,141.935318 149.351044,130.225403 150.815720,118.567879 
	C151.679443,111.693420 150.973526,104.621750 150.973526,97.638779 
	C150.487854,97.623810 150.002167,97.608841 149.516495,97.593872 
	C149.013245,101.078850 148.027954,104.573395 148.096924,108.047012 
	C148.305664,118.560081 145.837402,128.491959 141.815536,138.013046 
	C133.560852,157.554718 119.588264,170.442123 97.733109,171.807175 
	C78.530052,173.006577 63.356289,164.952164 53.220985,145.205154 
	C45.818794,130.783188 43.885654,115.175903 44.828960,98.975662 
	C45.592819,85.857277 47.979542,73.404648 54.098248,61.669502 
	C65.774292,39.275841 89.768951,31.567387 111.931366,43.508167 
	C124.128593,50.079853 129.497787,61.559940 133.128448,74.946709 
z"/>
<path fill="#1c8de4" opacity="1.000000" stroke="none" 
	d="
M320.940247,134.720734 
	C316.924377,145.732422 311.623474,155.677032 303.548920,163.642578 
	C294.438446,172.630066 283.886383,179.780624 271.078979,182.393402 
	C249.587265,186.777786 227.818909,187.651733 206.889160,180.672241 
	C180.305527,171.807312 164.834015,152.299118 159.012711,125.016838 
	C155.493805,108.525063 156.220963,92.051163 161.235367,76.133392 
	C167.857819,55.111031 180.995483,39.054790 202.134628,31.394583 
	C207.632156,29.402439 214.549057,31.332912 220.814255,31.449852 
	C222.550873,31.482267 224.588440,32.071995 225.973923,31.378752 
	C232.331757,28.197527 238.910629,26.603161 246.040237,26.971405 
	C256.562988,27.514908 267.138611,25.951290 277.533112,29.661074 
	C293.851288,35.484993 305.865570,46.102104 314.366058,60.867840 
	C324.042511,77.676300 326.136017,96.140343 324.838684,115.046623 
	C324.393860,121.528915 322.316193,127.899170 320.940247,134.720734 
M242.233521,42.471981 
	C250.636734,38.890335 259.098724,37.991886 267.527435,42.265774 
	C279.390350,48.281059 285.153107,58.960957 288.979614,70.978271 
	C292.965027,83.494530 293.311523,96.400833 293.055023,109.413666 
	C292.695740,127.641594 288.204285,144.286728 277.045074,159.136185 
	C263.197662,177.562805 231.843719,177.486145 217.914200,159.092621 
	C205.881973,143.204422 202.278503,124.856842 201.208893,105.846848 
	C200.683029,96.500740 202.003250,86.994743 203.073273,77.627960 
	C204.689224,63.481998 208.258789,49.919582 217.164017,38.321198 
	C217.952011,37.294853 218.474686,36.064785 219.175156,34.833412 
	C218.116241,34.402321 217.799911,34.148590 217.522568,34.185749 
	C216.876465,34.272324 216.231720,34.451321 215.616684,34.675758 
	C198.859009,40.791054 187.366821,52.738293 180.402161,68.645149 
	C170.374664,91.547333 170.133926,115.147415 179.105133,138.433472 
	C185.843399,155.923676 198.234390,168.505112 215.558975,176.015854 
	C227.231155,181.076111 239.500778,182.302277 252.082367,182.039291 
	C270.713501,181.649872 286.800812,175.053207 300.156586,162.237976 
	C315.576538,147.442093 320.997772,128.364365 321.941925,107.739143 
	C322.711212,90.932686 319.083649,74.928749 310.173065,60.632435 
	C297.722443,40.656487 280.050171,28.904825 255.733810,30.144855 
	C245.543411,30.664520 236.499847,34.619705 230.046692,43.326229 
	C222.180405,53.939358 220.998810,65.916023 222.410004,78.424278 
	C222.697632,80.973663 224.235046,83.382042 225.196335,85.855423 
	C225.623734,85.688393 226.051132,85.521370 226.478531,85.354347 
	C224.744537,68.768280 226.193039,53.326256 242.233521,42.471981 
M215.716003,88.999855 
	C208.766159,88.971649 208.454453,88.624008 206.399551,78.328438 
	C205.893570,81.015312 204.991394,83.394188 205.079407,85.735855 
	C205.594666,99.447197 205.477203,113.263329 207.257690,126.822906 
	C208.974777,139.899414 214.536926,151.981339 224.664597,160.907242 
	C230.890472,166.394348 237.837646,171.462708 247.374527,167.328796 
	C258.046906,162.702652 265.160095,154.511658 269.614838,144.414703 
	C278.950043,123.255806 279.674072,101.085251 274.939087,78.676559 
	C272.555786,67.397385 268.414551,56.946129 259.493866,48.939739 
	C253.126572,43.225063 248.767563,42.082817 242.919144,46.156792 
	C239.866928,48.282951 237.004135,51.143124 235.044800,54.287952 
	C229.534775,63.131794 227.481155,72.771172 229.858215,83.179871 
	C230.678192,86.770447 229.875397,89.485283 225.142502,89.047089 
	C222.335892,88.787239 219.485535,88.999748 215.716003,88.999855 
z"/>
<path fill="#1c8de4" opacity="1.000000" stroke="none" 
	d="
M579.426453,33.253616 
	C595.116333,35.990250 608.384338,42.163471 618.726624,54.141506 
	C627.032043,63.760548 632.348877,74.754181 634.504089,87.144928 
	C638.420227,109.660294 637.915405,131.943420 626.642883,152.473557 
	C616.903625,170.211411 601.937256,182.140808 581.313354,183.765854 
	C562.470520,185.250549 543.465820,184.845901 524.530884,184.931198 
	C513.927063,184.978973 503.313721,184.445038 492.722931,183.848480 
	C491.427429,183.775513 489.137665,181.545959 489.261475,180.561417 
	C489.465515,178.938995 491.245300,176.241196 492.394623,176.223801 
	C498.541412,176.130768 502.820068,171.264420 502.862244,164.526779 
	C503.094910,127.383659 502.910919,90.237930 502.858215,53.093109 
	C502.858063,52.984943 502.687592,52.877022 502.412689,52.550335 
	C494.835815,55.150013 489.357941,60.609028 486.376404,67.625374 
	C482.682556,76.317940 478.538025,81.049278 467.922852,78.297401 
	C460.505981,76.374657 460.090485,77.471977 461.968201,69.494827 
	C466.923218,48.444618 481.259949,34.823780 502.896515,33.213905 
	C522.081299,31.786459 541.412354,32.227440 560.680664,32.077900 
	C566.785217,32.030521 572.895569,32.737148 579.426453,33.253616 
M512.088257,177.948624 
	C509.733063,178.607010 507.377899,179.265381 505.022705,179.923752 
	C506.118622,181.409378 507.122864,181.956772 508.120636,181.945236 
	C532.059265,181.668869 556.071350,182.381348 579.913208,180.695160 
	C601.263977,179.185135 616.958984,166.647034 625.450256,147.378372 
	C636.091309,123.231178 636.700195,97.955841 626.798035,73.276802 
	C617.540039,50.202995 597.702026,37.333363 573.060242,36.160267 
	C555.700134,35.333820 538.235229,35.309433 520.877930,36.163322 
	C496.361420,37.369415 483.058960,49.002316 477.276337,71.699081 
	C477.047913,72.595650 477.493652,73.663963 477.625275,74.652260 
	C478.007385,74.904175 478.389465,75.156090 478.771545,75.408005 
	C485.480927,56.441837 498.792542,46.659454 519.002441,45.197937 
	C519.002441,47.581055 519.017151,49.538803 519.000305,51.496281 
	C518.669250,89.924271 518.471924,128.354706 517.776367,166.776138 
	C517.710815,170.398834 514.507080,173.964737 512.088257,177.948624 
z"/>
<path fill="#ffffff" opacity="1.000000" stroke="none" 
	d="
M368.997559,155.993027 
	C368.997559,158.823868 368.997437,161.156357 368.997559,163.488831 
	C368.998108,173.947052 371.213226,176.658203 382.804413,178.848526 
	C380.710327,179.912689 379.646027,180.932129 378.600861,180.912903 
	C362.823059,180.622543 347.047668,180.198288 331.272614,179.773117 
	C331.067627,179.767593 330.873962,179.343430 330.415771,178.816559 
	C331.004089,178.528778 331.481445,178.130356 332.000122,178.066208 
	C340.214569,177.050735 343.970581,172.904907 343.987335,164.529480 
	C344.029358,143.537277 343.886658,122.543983 344.052734,101.552979 
	C344.173706,86.264809 344.547943,70.975510 345.066803,55.695454 
	C345.232941,50.801708 344.421875,46.611359 340.994629,42.881565 
	C334.599976,35.922401 328.956360,28.185028 322.037018,21.818281 
	C313.293518,13.773023 302.941467,9.237322 290.448395,13.998789 
	C290.250000,13.546213 290.051636,13.093637 289.853241,12.641062 
	C291.252869,11.423798 292.482300,9.884497 294.079254,9.040660 
	C305.924316,2.781737 317.385376,4.132921 328.530334,11.016965 
	C340.797974,18.594473 349.490723,29.635435 358.006073,40.930695 
	C381.347870,71.892509 404.816010,102.759071 428.246368,133.654068 
	C428.433807,133.901245 428.790314,134.020187 429.583893,134.531433 
	C429.742035,133.113434 429.981476,131.957016 429.983398,130.800201 
	C430.011566,113.806496 429.907745,96.811852 430.056396,79.819366 
	C430.126038,71.861237 430.854614,63.909592 430.954681,55.950859 
	C431.123901,42.489536 429.571136,40.336685 416.198730,35.516922 
	C434.522278,35.516922 451.408203,35.516922 468.294159,35.516922 
	C468.369446,35.733955 468.444733,35.950989 468.520020,36.168026 
	C467.598694,36.511879 466.695740,36.919872 465.753174,37.189461 
	C458.053436,39.391796 455.023071,43.394108 455.012848,51.672115 
	C454.982147,76.496292 455.087006,101.321068 454.943237,126.144478 
	C454.882690,136.601028 454.475250,147.061935 453.950226,157.507034 
	C453.631470,163.847717 454.647156,169.223297 459.013000,174.472443 
	C466.842133,183.885757 473.150024,194.600372 483.353088,201.893539 
	C491.542572,207.747406 500.189850,211.927643 510.704681,209.113892 
	C511.540009,208.890366 512.543762,209.296204 513.469299,209.409576 
	C513.639587,209.853622 513.809937,210.297684 513.980225,210.741745 
	C511.048431,212.157196 508.227570,213.903320 505.165558,214.930679 
	C492.146362,219.298920 480.696594,215.374893 470.196045,207.642563 
	C457.983917,198.649933 449.294067,186.422348 440.276154,174.511459 
	C418.671814,145.976379 397.050293,117.454353 375.429138,88.932007 
	C373.741211,86.705276 372.002228,84.517250 368.997559,82.497330 
	C368.997559,106.829773 368.997559,131.162216 368.997559,155.993027 
z"/>
<path fill="#ffffff" opacity="1.000000" stroke="none" 
	d="
M655.995972,113.958252 
	C655.157532,98.625519 657.158386,84.334755 663.883972,70.871262 
	C671.132690,56.360580 681.765747,45.439632 696.890869,39.187401 
	C698.157349,38.663857 699.590942,38.544434 701.771790,38.050385 
	C701.120605,39.941696 701.029358,41.161880 700.390015,41.919453 
	C691.578735,52.359646 687.917358,64.976395 686.206543,78.026154 
	C684.703369,89.492584 683.813232,101.182167 684.204285,112.720589 
	C684.788208,129.950745 688.602478,146.458542 698.922791,161.000778 
	C712.490540,180.118866 739.685486,182.663788 756.389099,166.163193 
	C768.514221,154.185455 773.715759,139.203323 774.862732,122.763672 
	C775.608826,112.070854 775.790466,101.209724 774.797363,90.557098 
	C773.553284,77.212410 769.297668,64.618385 760.506836,54.015717 
	C752.627686,44.512653 742.048401,41.977497 730.771423,44.469704 
	C719.576904,46.943707 713.436218,55.647594 710.178833,66.211426 
	C708.376038,72.058075 706.901062,78.043571 708.891052,84.286842 
	C709.386292,85.840614 708.965027,87.686523 708.965027,89.398155 
	C708.390686,89.488960 707.816345,89.579765 707.242004,89.670570 
	C706.199829,86.022125 704.437256,82.410919 704.246399,78.718452 
	C703.594604,66.110970 705.890930,54.141426 714.971497,44.607491 
	C724.117065,35.005249 735.906250,32.760864 748.429749,34.376553 
	C777.099731,38.075359 797.809753,62.693623 802.641418,90.230606 
	C805.691162,107.612122 805.570618,125.261627 798.491638,142.147385 
	C788.686768,165.535400 771.491211,180.268387 746.617126,184.728271 
	C723.765198,188.825607 701.835754,185.828842 682.914551,170.907730 
	C668.610779,159.627869 660.212524,144.676132 657.072083,126.804466 
	C656.359436,122.748871 656.336670,118.572052 655.995972,113.958252 
z"/>
<path fill="transparent" opacity="1.000000" stroke="none" 
	d="
M700.981812,157.947906 
	C694.229858,148.854935 690.861450,138.645050 689.196716,128.086136 
	C687.686462,118.507217 687.418457,108.700417 687.107788,98.977943 
	C686.953003,94.137306 687.929504,89.260536 688.395813,84.384361 
	C688.943542,84.491219 689.454773,84.479645 689.497253,84.615128 
	C692.127747,92.998688 692.124207,92.999794 700.989990,92.999863 
	C712.007324,92.999947 712.258789,92.992104 711.924072,82.261093 
	C711.632385,72.907082 712.744080,64.079231 718.901245,56.620598 
	C730.017334,43.154869 736.863281,46.210518 746.335144,57.275394 
	C754.608582,66.940178 758.051758,79.215836 758.968994,91.955849 
	C759.491455,99.212555 760.105225,106.505714 759.913574,113.762276 
	C759.442322,131.604721 755.596497,148.808197 743.043335,162.055038 
	C731.268494,174.480591 720.512024,177.804382 706.940186,164.424164 
	C704.929688,162.442062 703.037292,160.340256 700.981812,157.947906 
z"/>
<path fill="#ffffff" opacity="1.000000" stroke="none" 
	d="
M133.071259,74.576721 
	C129.497787,61.559940 124.128593,50.079853 111.931366,43.508167 
	C89.768951,31.567387 65.774292,39.275841 54.098248,61.669502 
	C47.979542,73.404648 45.592819,85.857277 44.828960,98.975662 
	C43.885654,115.175903 45.818794,130.783188 53.220985,145.205154 
	C63.356289,164.952164 78.530052,173.006577 97.733109,171.807175 
	C119.588264,170.442123 133.560852,157.554718 141.815536,138.013046 
	C145.837402,128.491959 148.305664,118.560081 148.096924,108.047012 
	C148.027954,104.573395 149.013245,101.078850 149.516495,97.593872 
	C150.002167,97.608841 150.487854,97.623810 150.973526,97.638779 
	C150.973526,104.621750 151.679443,111.693420 150.815720,118.567879 
	C149.351044,130.225403 147.438980,141.935318 141.306274,152.323273 
	C132.410110,167.392166 119.954025,177.527603 102.142410,180.030319 
	C79.939575,183.150040 59.404549,178.947372 41.768177,164.746964 
	C28.322163,153.920517 20.659414,139.382446 18.007637,122.288300 
	C17.299109,117.720901 16.211918,113.134338 16.188589,108.552048 
	C16.088247,88.843376 20.227283,70.341858 32.938465,54.574291 
	C43.349674,41.659725 56.865570,33.651028 73.039246,30.585743 
	C92.607857,26.877043 111.647102,28.985247 129.866333,37.402382 
	C133.574265,39.115421 135.307220,41.416267 135.122192,45.834023 
	C134.732193,55.146244 135.021591,64.486221 134.977829,73.814568 
	C134.972641,74.916298 135.541138,77.529510 133.071259,74.576721 
z"/>
<path fill="#ffffff" opacity="1.000000" stroke="none" 
	d="
M241.929703,42.691650 
	C226.193039,53.326256 224.744537,68.768280 226.478531,85.354347 
	C226.051132,85.521370 225.623734,85.688393 225.196335,85.855423 
	C224.235046,83.382042 222.697632,80.973663 222.410004,78.424278 
	C220.998810,65.916023 222.180405,53.939358 230.046692,43.326229 
	C236.499847,34.619705 245.543411,30.664520 255.733810,30.144855 
	C280.050171,28.904825 297.722443,40.656487 310.173065,60.632435 
	C319.083649,74.928749 322.711212,90.932686 321.941925,107.739143 
	C320.997772,128.364365 315.576538,147.442093 300.156586,162.237976 
	C286.800812,175.053207 270.713501,181.649872 252.082367,182.039291 
	C239.500778,182.302277 227.231155,181.076111 215.558975,176.015854 
	C198.234390,168.505112 185.843399,155.923676 179.105133,138.433472 
	C170.133926,115.147415 170.374664,91.547333 180.402161,68.645149 
	C187.366821,52.738293 198.859009,40.791054 215.616684,34.675758 
	C216.231720,34.451321 216.876465,34.272324 217.522568,34.185749 
	C217.799911,34.148590 218.116241,34.402321 219.175156,34.833412 
	C218.474686,36.064785 217.952011,37.294853 217.164017,38.321198 
	C208.258789,49.919582 204.689224,63.481998 203.073273,77.627960 
	C202.003250,86.994743 200.683029,96.500740 201.208893,105.846848 
	C202.278503,124.856842 205.881973,143.204422 217.914200,159.092621 
	C231.843719,177.486145 263.197662,177.562805 277.045074,159.136185 
	C288.204285,144.286728 292.695740,127.641594 293.055023,109.413666 
	C293.311523,96.400833 292.965027,83.494530 288.979614,70.978271 
	C285.153107,58.960957 279.390350,48.281059 267.527435,42.265774 
	C259.098724,37.991886 250.636734,38.890335 241.929703,42.691650 
z"/>
<path fill="transparent" opacity="1.000000" stroke="none" 
	d="
M216.185425,88.999863 
	C219.485535,88.999748 222.335892,88.787239 225.142502,89.047089 
	C229.875397,89.485283 230.678192,86.770447 229.858215,83.179871 
	C227.481155,72.771172 229.534775,63.131794 235.044800,54.287952 
	C237.004135,51.143124 239.866928,48.282951 242.919144,46.156792 
	C248.767563,42.082817 253.126572,43.225063 259.493866,48.939739 
	C268.414551,56.946129 272.555786,67.397385 274.939087,78.676559 
	C279.674072,101.085251 278.950043,123.255806 269.614838,144.414703 
	C265.160095,154.511658 258.046906,162.702652 247.374527,167.328796 
	C237.837646,171.462708 230.890472,166.394348 224.664597,160.907242 
	C214.536926,151.981339 208.974777,139.899414 207.257690,126.822906 
	C205.477203,113.263329 205.594666,99.447197 205.079407,85.735855 
	C204.991394,83.394188 205.893570,81.015312 206.399551,78.328438 
	C208.454453,88.624008 208.766159,88.971649 216.185425,88.999863 
z"/>
<path fill="#ffffff" opacity="1.000000" stroke="none" 
	d="
M512.424316,177.752808 
	C514.507080,173.964737 517.710815,170.398834 517.776367,166.776138 
	C518.471924,128.354706 518.669250,89.924271 519.000305,51.496281 
	C519.017151,49.538803 519.002441,47.581055 519.002441,45.197937 
	C498.792542,46.659454 485.480927,56.441837 478.771545,75.408005 
	C478.389465,75.156090 478.007385,74.904175 477.625275,74.652260 
	C477.493652,73.663963 477.047913,72.595650 477.276337,71.699081 
	C483.058960,49.002316 496.361420,37.369415 520.877930,36.163322 
	C538.235229,35.309433 555.700134,35.333820 573.060242,36.160267 
	C597.702026,37.333363 617.540039,50.202995 626.798035,73.276802 
	C636.700195,97.955841 636.091309,123.231178 625.450256,147.378372 
	C616.958984,166.647034 601.263977,179.185135 579.913208,180.695160 
	C556.071350,182.381348 532.059265,181.668869 508.120636,181.945236 
	C507.122864,181.956772 506.118622,181.409378 505.022705,179.923752 
	C507.377899,179.265381 509.733063,178.607010 512.424316,177.752808 
M544.004883,168.325470 
	C543.402710,172.130280 545.113037,173.291489 548.790283,173.062561 
	C553.269043,172.783722 557.778503,172.996414 562.274719,172.999222 
	C579.682922,173.010071 592.238708,164.680969 597.933838,148.130936 
	C600.811401,139.768768 602.694641,130.953110 604.013672,122.189896 
	C606.511963,105.591080 605.497681,89.081215 599.865479,73.133835 
	C594.554016,58.094582 585.489502,46.893585 568.318604,45.343689 
	C562.042419,44.777180 555.677673,45.264534 549.370789,44.936275 
	C545.705261,44.745491 544.964355,46.261177 544.944092,49.588943 
	C544.705505,88.848450 544.338257,128.107178 544.004883,168.325470 
z"/>
<path fill="#1c8de4" opacity="1.000000" stroke="none" 
	d="
M544.004883,167.845795 
	C544.338257,128.107178 544.705505,88.848450 544.944092,49.588943 
	C544.964355,46.261177 545.705261,44.745491 549.370789,44.936275 
	C555.677673,45.264534 562.042419,44.777180 568.318604,45.343689 
	C585.489502,46.893585 594.554016,58.094582 599.865479,73.133835 
	C605.497681,89.081215 606.511963,105.591080 604.013672,122.189896 
	C602.694641,130.953110 600.811401,139.768768 597.933838,148.130936 
	C592.238708,164.680969 579.682922,173.010071 562.274719,172.999222 
	C557.778503,172.996414 553.269043,172.783722 548.790283,173.062561 
	C545.113037,173.291489 543.402710,172.130280 544.004883,167.845795 
M583.534119,143.948303 
	C589.218872,129.611893 589.499817,114.591400 588.961243,99.514969 
	C588.533691,87.546463 586.232605,75.962372 580.121582,65.460327 
	C572.903870,53.056362 561.724548,46.160271 548.382812,48.656952 
	C548.382812,88.657280 548.382812,128.669022 548.382812,168.609619 
	C565.362244,171.675842 577.685120,159.779114 583.534119,143.948303 
z"/>
<path fill="transparent" opacity="1.000000" stroke="none" 
	d="
M583.341064,144.291473 
	C577.685120,159.779114 565.362244,171.675842 548.382812,168.609619 
	C548.382812,128.669022 548.382812,88.657280 548.382812,48.656952 
	C561.724548,46.160271 572.903870,53.056362 580.121582,65.460327 
	C586.232605,75.962372 588.533691,87.546463 588.961243,99.514969 
	C589.499817,114.591400 589.218872,129.611893 583.341064,144.291473 
z"/>
</svg>