<svg width="41" height="40" viewBox="0 0 41 40" fill="none" xmlns="http://www.w3.org/2000/svg">
<g filter="url(#filter0_d_92_13289)">
<path d="M6 0V3H3V6H0V31H3V34H6V37H9V0H6Z" fill="#1c8de4"/>
</g>
<g filter="url(#filter1_d_92_13289)">
<rect width="20" height="37" transform="translate(9)" fill="#1c8de4"/>
<rect x="18.3086" y="9.5" width="1.38462" height="1.38462" fill="#ffffff"/>
<rect x="19.6934" y="12.269" width="1.38462" height="1.38462" fill="#ffffff"/>
<rect x="21.0781" y="13.6538" width="1.38462" height="1.38462" fill="#ffffff"/>
<rect x="22.4629" y="15.0386" width="1.38462" height="1.38462" fill="#ffffff"/>
<rect x="18.3086" y="10.8848" width="1.38462" height="1.38462" fill="#ffffff"/>
<rect x="19.6934" y="13.6538" width="1.38462" height="1.38462" fill="#ffffff"/>
<rect x="21.0781" y="15.0386" width="1.38462" height="1.38462" fill="#ffffff"/>
<rect x="22.4629" y="16.4229" width="1.38462" height="1.38462" fill="#ffffff"/>
<rect x="18.3086" y="12.269" width="1.38462" height="1.38462" fill="#ffffff"/>
<rect x="19.6934" y="15.0386" width="1.38462" height="1.38462" fill="#ffffff"/>
<rect x="21.0781" y="16.4229" width="1.38462" height="1.38462" fill="#ffffff"/>
<rect x="18.3086" y="13.6538" width="1.38462" height="1.38462" fill="#ffffff"/>
<rect x="18.3086" y="15.0386" width="1.38462" height="1.38462" fill="#ffffff"/>
<rect x="18.3086" y="16.4229" width="1.38462" height="1.38462" fill="#ffffff"/>
<rect x="18.3086" y="17.8076" width="1.38462" height="1.38462" fill="#ffffff"/>
<rect x="18.3086" y="19.1924" width="1.38462" height="1.38462" fill="#ffffff"/>
<rect x="18.3086" y="20.5771" width="1.38462" height="1.38462" fill="#ffffff"/>
<rect x="18.3086" y="21.9614" width="1.38462" height="1.38462" fill="#ffffff"/>
<rect x="16.9238" y="21.9614" width="1.38462" height="1.38462" fill="#ffffff"/>
<rect x="16.9238" y="23.3462" width="1.38462" height="1.38462" fill="#ffffff"/>
<rect x="14.1543" y="23.3462" width="1.38462" height="1.38462" fill="#ffffff"/>
<rect x="14.1543" y="24.731" width="1.38462" height="1.38462" fill="#ffffff"/>
<rect x="16.9238" y="24.731" width="1.38462" height="1.38462" fill="#ffffff"/>
<rect x="16.9238" y="26.1152" width="1.38462" height="1.38462" fill="#ffffff"/>
<rect x="15.5391" y="23.3462" width="1.38462" height="1.38462" fill="#ffffff"/>
<rect x="15.5391" y="21.9614" width="1.38462" height="1.38462" fill="#ffffff"/>
<rect x="15.5391" y="24.731" width="1.38462" height="1.38462" fill="#ffffff"/>
<rect x="15.5391" y="26.1152" width="1.38462" height="1.38462" fill="#ffffff"/>
<rect x="18.3086" y="23.3462" width="1.38462" height="1.38462" fill="#ffffff"/>
<rect x="18.3086" y="24.731" width="1.38462" height="1.38462" fill="#ffffff"/>
</g>
<g filter="url(#filter2_d_92_13289)">
<path d="M32 37V34H35V31H38V6H35V3H32V0H29V37H32Z" fill="#1c8de4"/>
</g>
<defs>
<filter id="filter0_d_92_13289" x="0" y="0" width="12" height="40" filterUnits="userSpaceOnUse" color-interpolation-filters="sRGB">
<feFlood flood-opacity="0" result="BackgroundImageFix"/>
<feColorMatrix in="SourceAlpha" type="matrix" values="0 0 0 0 0 0 0 0 0 85 0 0 0 0 127 0 0 0 0 0" result="hardAlpha"/>
<feOffset dx="3" dy="3"/>
<feComposite in2="hardAlpha" operator="out"/>
<feColorMatrix type="matrix" values="0 0 0 0 0 0 0 0 0 85 0 0 0 0 127 0 0 0 0 0"/>
<feBlend mode="normal" in2="BackgroundImageFix" result="effect1_dropShadow_92_13289"/>
<feBlend mode="normal" in="SourceGraphic" in2="effect1_dropShadow_92_13289" result="shape"/>
</filter>
<filter id="filter1_d_92_13289" x="9" y="0" width="23" height="40" filterUnits="userSpaceOnUse" color-interpolation-filters="sRGB">
<feFlood flood-opacity="0" result="BackgroundImageFix"/>
<feColorMatrix in="SourceAlpha" type="matrix" values="0 0 0 0 0 0 0 0 0 85 0 0 0 0 127 0 0 0 0 0" result="hardAlpha"/>
<feOffset dx="3" dy="3"/>
<feComposite in2="hardAlpha" operator="out"/>
<feColorMatrix type="matrix" values="0 0 0 0 0 0 0 0 0 85 0 0 0 0 127 0 0 0 0 0"/>
<feBlend mode="normal" in2="BackgroundImageFix" result="effect1_dropShadow_92_13289"/>
<feBlend mode="normal" in="SourceGraphic" in2="effect1_dropShadow_92_13289" result="shape"/>
</filter>
<filter id="filter2_d_92_13289" x="29" y="0" width="12" height="40" filterUnits="userSpaceOnUse" color-interpolation-filters="sRGB">
<feFlood flood-opacity="0" result="BackgroundImageFix"/>
<feColorMatrix in="SourceAlpha" type="matrix" values="0 0 0 0 0 0 0 0 0 85 0 0 0 0 127 0 0 0 0 0" result="hardAlpha"/>
<feOffset dx="3" dy="3"/>
<feComposite in2="hardAlpha" operator="out"/>
<feColorMatrix type="matrix" values="0 0 0 0 0 0 0 0 0 85 0 0 0 0 127 0 0 0 0 0"/>
<feBlend mode="normal" in2="BackgroundImageFix" result="effect1_dropShadow_92_13289"/>
<feBlend mode="normal" in="SourceGraphic" in2="effect1_dropShadow_92_13289" result="shape"/>
</filter>
</defs>
</svg>
