<svg width="143" height="139" viewBox="0 0 143 139" fill="none" xmlns="http://www.w3.org/2000/svg">
<g opacity="0.95">
<path d="M130.803 84.4636L130.055 88.6392L125.879 87.8903L126.628 83.7147L130.803 84.4636Z" fill="#00eeff"/>
<path d="M131.553 80.2907L130.805 84.4636L126.629 83.7146L127.377 79.5417L131.553 80.2907Z" fill="#00eeff"/>
<path d="M132.302 76.1151L131.553 80.2907L127.377 79.5417L128.126 75.3662L132.302 76.1151Z" fill="#00eeff"/>
<path d="M133.049 71.9423L132.301 76.1152L128.125 75.3662L128.873 71.1933L133.049 71.9423Z" fill="#00eeff"/>
<path d="M133.8 67.7667L133.051 71.9423L128.875 71.1934L129.624 67.0178L133.8 67.7667Z" fill="#00eeff"/>
<path d="M134.547 63.5937L133.799 67.7665L129.623 67.0176L130.372 62.8447L134.547 63.5937Z" fill="#00eeff"/>
<path d="M125.878 87.8902L125.13 92.063L120.957 91.3146L121.706 87.1417L125.878 87.8902Z" fill="#00eeff"/>
<path d="M126.629 83.7146L125.88 87.8902L121.707 87.1417L122.456 82.9661L126.629 83.7146Z" fill="white"/>
<path d="M127.376 79.5417L126.628 83.7145L122.455 82.9661L123.204 78.7932L127.376 79.5417Z" fill="#00eeff"/>
<path d="M128.125 75.3661L127.376 79.5417L123.203 78.7932L123.952 74.6176L128.125 75.3661Z" fill="white"/>
<path d="M128.874 71.1933L128.126 75.3661L123.953 74.6177L124.702 70.4448L128.874 71.1933Z" fill="#00eeff"/>
<path d="M129.623 67.0176L128.874 71.1932L124.701 70.4447L125.45 66.2691L129.623 67.0176Z" fill="#00eeff"/>
<path d="M130.371 62.8446L129.622 67.0175L125.449 66.269L126.198 62.0962L130.371 62.8446Z" fill="#00eeff"/>
<path d="M131.121 58.6692L130.372 62.8448L126.199 62.0963L126.948 57.9207L131.121 58.6692Z" fill="#00eeff"/>
<path d="M131.869 54.4962L131.12 58.6691L126.947 57.9207L127.696 53.7478L131.869 54.4962Z" fill="#00eeff"/>
<path d="M132.618 50.318L131.868 54.4963L127.695 53.7478L128.445 49.5695L132.618 50.318Z" fill="#00eeff"/>
<path d="M121.705 87.1415L120.957 91.3144L116.781 90.5654L117.53 86.3925L121.705 87.1415Z" fill="#00eeff"/>
<path d="M122.454 82.9659L121.705 87.1415L117.529 86.3926L118.278 82.217L122.454 82.9659Z" fill="#00eeff"/>
<path d="M123.203 78.793L122.455 82.9659L118.279 82.2169L119.028 78.044L123.203 78.793Z" fill="white"/>
<path d="M123.952 74.6175L123.203 78.793L119.027 78.0441L119.776 73.8685L123.952 74.6175Z" fill="#00eeff"/>
<path d="M124.699 70.4446L123.951 74.6175L119.775 73.8685L120.524 69.6956L124.699 70.4446Z" fill="#00eeff"/>
<path d="M125.45 66.269L124.701 70.4446L120.525 69.6957L121.274 65.5201L125.45 66.269Z" fill="#00eeff"/>
<path d="M126.198 62.0961L125.449 66.269L121.273 65.52L122.022 61.3471L126.198 62.0961Z" fill="#00eeff"/>
<path d="M126.946 57.9206L126.197 62.0961L122.021 61.3472L122.77 57.1716L126.946 57.9206Z" fill="#00eeff"/>
<path d="M127.696 53.7477L126.947 57.9206L122.771 57.1716L123.52 52.9987L127.696 53.7477Z" fill="#00eeff"/>
<path d="M128.445 49.5694L127.695 53.7476L123.52 52.9987L124.269 48.8204L128.445 49.5694Z" fill="#00eeff"/>
<path d="M129.194 45.3938L128.445 49.5694L124.27 48.8204L125.018 44.6448L129.194 45.3938Z" fill="#00eeff"/>
<path d="M129.942 41.2182L129.193 45.3937L125.018 44.6448L125.767 40.4692L129.942 41.2182Z" fill="#00eeff"/>
<path d="M117.531 86.3927L116.782 90.5656L112.609 89.8171L113.358 85.6443L117.531 86.3927Z" fill="#00eeff"/>
<path d="M118.279 82.2172L117.53 86.3928L113.357 85.6443L114.106 81.4687L118.279 82.2172Z" fill="#00eeff"/>
<path d="M119.029 78.0442L118.28 82.2171L114.107 81.4686L114.856 77.2957L119.029 78.0442Z" fill="#00eeff"/>
<path d="M119.777 73.8688L119.028 78.0444L114.855 77.2959L115.604 73.1203L119.777 73.8688Z" fill="#00eeff"/>
<path d="M120.525 69.6958L119.776 73.8687L115.604 73.1202L116.352 68.9474L120.525 69.6958Z" fill="#00eeff"/>
<path d="M121.275 65.5203L120.526 69.6959L116.354 68.9474L117.102 64.7718L121.275 65.5203Z" fill="#00eeff"/>
<path d="M122.023 61.3473L121.274 65.5202L117.102 64.7717L117.85 60.5988L122.023 61.3473Z" fill="#00eeff"/>
<path d="M122.771 57.1718L122.022 61.3473L117.85 60.5989L118.599 56.4233L122.771 57.1718Z" fill="#00eeff"/>
<path d="M123.521 52.9989L122.772 57.1718L118.6 56.4233L119.348 52.2505L123.521 52.9989Z" fill="#00eeff"/>
<path d="M124.27 48.8206L123.521 52.9988L119.348 52.2504L120.097 48.0721L124.27 48.8206Z" fill="#00eeff"/>
<path d="M125.019 44.645L124.271 48.8206L120.098 48.0721L120.847 43.8965L125.019 44.645Z" fill="#00eeff"/>
<path d="M125.768 40.4694L125.019 44.645L120.846 43.8965L121.595 39.7209L125.768 40.4694Z" fill="white"/>
<path d="M126.517 36.2965L125.769 40.4694L121.596 39.7209L122.344 35.5481L126.517 36.2965Z" fill="#00eeff"/>
<path d="M113.358 85.6441L112.609 89.8169L108.434 89.068L109.182 84.8951L113.358 85.6441Z" fill="#00eeff"/>
<path d="M114.106 81.4686L113.357 85.6442L109.182 84.8953L109.931 80.7197L114.106 81.4686Z" fill="#00eeff"/>
<path d="M114.854 77.2955L114.105 81.4684L109.93 80.7195L110.678 76.5466L114.854 77.2955Z" fill="#00eeff"/>
<path d="M115.604 73.1201L114.855 77.2957L110.68 76.5468L111.429 72.3712L115.604 73.1201Z" fill="#00eeff"/>
<path d="M116.352 68.9472L115.603 73.12L111.428 72.3711L112.176 68.1982L116.352 68.9472Z" fill="#00eeff"/>
<path d="M117.1 64.7716L116.351 68.9472L112.176 68.1982L112.925 64.0226L117.1 64.7716Z" fill="#00eeff"/>
<path d="M117.85 60.5986L117.101 64.7715L112.926 64.0226L113.674 59.8497L117.85 60.5986Z" fill="white"/>
<path d="M118.598 56.4231L117.849 60.5987L113.674 59.8497L114.423 55.6742L118.598 56.4231Z" fill="#00eeff"/>
<path d="M119.346 52.2503L118.597 56.4231L114.422 55.6742L115.17 51.5013L119.346 52.2503Z" fill="#00eeff"/>
<path d="M120.097 48.0719L119.347 52.2502L115.172 51.5012L115.921 47.323L120.097 48.0719Z" fill="#00eeff"/>
<path d="M120.844 43.8963L120.095 48.0719L115.92 47.323L116.669 43.1474L120.844 43.8963Z" fill="#00eeff"/>
<path d="M121.594 39.7207L120.845 43.8963L116.67 43.1473L117.419 38.9718L121.594 39.7207Z" fill="#00eeff"/>
<path d="M122.342 35.5479L121.593 39.7207L117.418 38.9718L118.166 34.7989L122.342 35.5479Z" fill="white"/>
<path d="M123.09 31.375L122.342 35.5479L118.166 34.799L118.914 30.6261L123.09 31.375Z" fill="#00eeff"/>
<path d="M109.183 84.8952L108.434 89.068L104.256 88.3186L105.004 84.1457L109.183 84.8952Z" fill="#00eeff"/>
<path d="M109.931 80.7197L109.182 84.8953L105.004 84.1459L105.753 79.9703L109.931 80.7197Z" fill="#00eeff"/>
<path d="M110.679 76.5468L109.93 80.7196L105.752 79.9702L106.5 75.7973L110.679 76.5468Z" fill="#00eeff"/>
<path d="M111.427 72.3712L110.678 76.5468L106.5 75.7974L107.249 71.6218L111.427 72.3712Z" fill="#00eeff"/>
<path d="M112.177 68.1984L111.428 72.3713L107.25 71.6218L107.998 67.4489L112.177 68.1984Z" fill="#00eeff"/>
<path d="M112.925 64.0227L112.176 68.1983L107.998 67.4489L108.747 63.2733L112.925 64.0227Z" fill="white"/>
<path d="M113.675 59.8497L112.926 64.0226L108.748 63.2732L109.497 59.1003L113.675 59.8497Z" fill="#00eeff"/>
<path d="M114.423 55.6742L113.674 59.8498L109.496 59.1003L110.245 54.9248L114.423 55.6742Z" fill="white"/>
<path d="M115.171 51.5014L114.422 55.6742L110.244 54.9248L110.993 50.7519L115.171 51.5014Z" fill="#00eeff"/>
<path d="M115.92 47.3231L115.17 51.5014L110.992 50.752L111.742 46.5737L115.92 47.3231Z" fill="#00eeff"/>
<path d="M116.669 43.1474L115.92 47.323L111.742 46.5736L112.491 42.398L116.669 43.1474Z" fill="#00eeff"/>
<path d="M117.419 38.9718L116.67 43.1474L112.492 42.3979L113.241 38.2224L117.419 38.9718Z" fill="#00eeff"/>
<path d="M118.167 34.799L117.418 38.9718L113.24 38.2224L113.989 34.0495L118.167 34.799Z" fill="#00eeff"/>
<path d="M118.915 30.6261L118.167 34.799L113.988 34.0496L114.737 29.8767L118.915 30.6261Z" fill="#00eeff"/>
<path d="M105.003 84.1458L104.255 88.3187L100.082 87.5702L100.831 83.3973L105.003 84.1458Z" fill="#00eeff"/>
<path d="M105.752 79.9703L105.003 84.1459L100.83 83.3975L101.579 79.2219L105.752 79.9703Z" fill="#00eeff"/>
<path d="M106.501 75.7973L105.753 79.9701L101.58 79.2217L102.329 75.0488L106.501 75.7973Z" fill="#00eeff"/>
<path d="M107.25 71.6218L106.501 75.7974L102.328 75.049L103.077 70.8734L107.25 71.6218Z" fill="#00eeff"/>
<path d="M107.998 67.4489L107.249 71.6218L103.076 70.8733L103.825 66.7004L107.998 67.4489Z" fill="#00eeff"/>
<path d="M108.748 63.2733L107.999 67.4489L103.826 66.7004L104.575 62.5248L108.748 63.2733Z" fill="#00eeff"/>
<path d="M109.496 59.1004L108.747 63.2732L104.574 62.5248L105.323 58.3519L109.496 59.1004Z" fill="white"/>
<path d="M110.244 54.9248L109.495 59.1004L105.322 58.3519L106.071 54.1764L110.244 54.9248Z" fill="#00eeff"/>
<path d="M110.994 50.752L110.245 54.9249L106.072 54.1764L106.821 50.0035L110.994 50.752Z" fill="#00eeff"/>
<path d="M111.743 46.5736L110.993 50.7519L106.82 50.0034L107.57 45.8252L111.743 46.5736Z" fill="#00eeff"/>
<path d="M112.492 42.398L111.743 46.5737L107.57 45.8252L108.319 41.6496L112.492 42.398Z" fill="#00eeff"/>
<path d="M113.24 38.2224L112.491 42.398L108.318 41.6495L109.067 37.474L113.24 38.2224Z" fill="#00eeff"/>
<path d="M113.99 34.0496L113.241 38.2225L109.068 37.474L109.817 33.3011L113.99 34.0496Z" fill="#00eeff"/>
<path d="M114.738 29.8767L113.989 34.0496L109.816 33.3011L110.565 29.1283L114.738 29.8767Z" fill="#00eeff"/>
<path d="M115.486 25.7012L114.737 29.8768L110.564 29.1283L111.313 24.9527L115.486 25.7012Z" fill="#00eeff"/>
<path d="M101.579 79.2218L100.83 83.3974L96.6543 82.6484L97.4033 78.4728L101.579 79.2218Z" fill="#551826"/>
<path d="M102.328 75.0489L101.58 79.2217L97.4043 78.4728L98.1528 74.2999L102.328 75.0489Z" fill="#551826"/>
<path d="M103.077 70.8733L102.328 75.0489L98.1523 74.2999L98.9013 70.1244L103.077 70.8733Z" fill="#551826"/>
<path d="M103.826 66.7005L103.078 70.8734L98.9023 70.1244L99.6508 65.9515L103.826 66.7005Z" fill="#551826"/>
<path d="M104.575 62.5248L103.826 66.7004L99.6504 65.9514L100.399 61.7758L104.575 62.5248Z" fill="#00eeff"/>
<path d="M105.323 58.3518L104.574 62.5247L100.398 61.7758L101.147 57.6029L105.323 58.3518Z" fill="#00eeff"/>
<path d="M106.071 54.1764L105.322 58.352L101.146 57.603L101.895 53.4275L106.071 54.1764Z" fill="#00eeff"/>
<path d="M106.821 50.0034L106.072 54.1763L101.896 53.4274L102.645 49.2545L106.821 50.0034Z" fill="#00eeff"/>
<path d="M107.57 45.8252L106.82 50.0035L102.645 49.2545L103.394 45.0763L107.57 45.8252Z" fill="#00eeff"/>
<path d="M108.319 41.6495L107.57 45.8251L103.395 45.0762L104.143 40.9005L108.319 41.6495Z" fill="#00eeff"/>
<path d="M109.067 37.4739L108.318 41.6495L104.143 40.9005L104.892 36.7249L109.067 37.4739Z" fill="#00eeff"/>
<path d="M109.817 33.3012L109.068 37.4741L104.893 36.7251L105.641 32.5522L109.817 33.3012Z" fill="#00eeff"/>
<path d="M110.565 29.1282L109.816 33.3011L105.641 32.5521L106.389 28.3792L110.565 29.1282Z" fill="#00eeff"/>
<path d="M111.313 24.9528L110.564 29.1284L106.389 28.3794L107.138 24.2038L111.313 24.9528Z" fill="#00eeff"/>
<path d="M112.063 20.7771L111.314 24.9527L107.139 24.2037L107.888 20.0282L112.063 20.7771Z" fill="#00eeff"/>
<path d="M96.6557 82.6485L95.9073 86.8213L91.7344 86.0729L92.4828 81.9L96.6557 82.6485Z" fill="#551826"/>
<path d="M100.398 61.7759L99.6494 65.9515L95.4766 65.203L96.2255 61.0274L100.398 61.7759Z" fill="#551826"/>
<path d="M101.148 57.6029L100.399 61.7758L96.2266 61.0273L96.975 56.8545L101.148 57.6029Z" fill="#00eeff"/>
<path d="M101.896 53.4275L101.147 57.6031L96.9746 56.8546L97.7236 52.679L101.896 53.4275Z" fill="#00eeff"/>
<path d="M102.646 49.2545L101.897 53.4274L97.7246 52.679L98.4731 48.5061L102.646 49.2545Z" fill="#00eeff"/>
<path d="M103.395 45.0763L102.646 49.2546L98.4727 48.5061L99.2221 44.3278L103.395 45.0763Z" fill="#00eeff"/>
<path d="M104.143 40.9006L103.394 45.0762L99.2207 44.3278L99.9697 40.1521L104.143 40.9006Z" fill="#00eeff"/>
<path d="M104.893 36.725L104.144 40.9006L99.9707 40.1521L100.72 35.9765L104.893 36.725Z" fill="#00eeff"/>
<path d="M105.64 32.5523L104.892 36.7252L100.719 35.9767L101.467 31.8038L105.64 32.5523Z" fill="#00eeff"/>
<path d="M106.39 28.3793L105.642 32.5522L101.469 31.8037L102.217 27.6308L106.39 28.3793Z" fill="white"/>
<path d="M107.139 24.2039L106.39 28.3795L102.217 27.631L102.966 23.4554L107.139 24.2039Z" fill="#00eeff"/>
<path d="M107.887 20.0282L107.138 24.2038L102.965 23.4553L103.714 19.2797L107.887 20.0282Z" fill="#00eeff"/>
<path d="M92.4827 81.8999L91.7342 86.0728L87.5586 85.3239L88.3071 81.151L92.4827 81.8999Z" fill="#551826"/>
<path d="M96.2254 61.0275L95.4764 65.2031L91.3008 64.4541L92.0497 60.2785L96.2254 61.0275Z" fill="#551826"/>
<path d="M96.9749 56.8545L96.2264 61.0274L92.0508 60.2784L92.7993 56.1056L96.9749 56.8545Z" fill="#551826"/>
<path d="M97.7234 52.679L96.9745 56.8546L92.7988 56.1056L93.5478 51.93L97.7234 52.679Z" fill="#00eeff"/>
<path d="M98.4729 48.5061L97.7245 52.679L93.5488 51.9301L94.2973 47.7572L98.4729 48.5061Z" fill="#00eeff"/>
<path d="M99.2219 44.3278L98.4725 48.506L94.2969 47.7571L95.0463 43.5788L99.2219 44.3278Z" fill="#00eeff"/>
<path d="M99.9695 40.1522L99.2205 44.3278L95.0449 43.5789L95.7939 39.4032L99.9695 40.1522Z" fill="#00eeff"/>
<path d="M100.719 35.9766L99.9705 40.1522L95.7949 39.4032L96.5439 35.2276L100.719 35.9766Z" fill="#00eeff"/>
<path d="M101.467 31.8037L100.719 35.9766L96.543 35.2277L97.2914 31.0548L101.467 31.8037Z" fill="white"/>
<path d="M102.217 27.6309L101.469 31.8038L97.293 31.0548L98.0414 26.8819L102.217 27.6309Z" fill="#00eeff"/>
<path d="M102.966 23.4553L102.217 27.6309L98.041 26.882L98.79 22.7064L102.966 23.4553Z" fill="white"/>
<path d="M103.714 19.2798L102.965 23.4554L98.7891 22.7064L99.538 18.5308L103.714 19.2798Z" fill="#00eeff"/>
<path d="M88.3061 81.1509L87.5576 85.3238L83.3848 84.5753L84.1332 80.4024L88.3061 81.1509Z" fill="#551826"/>
<path d="M91.3002 64.454L90.5517 68.6269L86.3789 67.8784L87.1274 63.7055L91.3002 64.454Z" fill="#551826"/>
<path d="M92.7983 56.1054L92.0498 60.2782L87.877 59.5298L88.6254 55.3569L92.7983 56.1054Z" fill="#551826"/>
<path d="M93.5468 51.9299L92.7978 56.1055L88.625 55.3571L89.374 51.1815L93.5468 51.9299Z" fill="#00eeff"/>
<path d="M94.2963 47.757L93.5478 51.9299L89.375 51.1814L90.1235 47.0085L94.2963 47.757Z" fill="#00eeff"/>
<path d="M95.0453 43.5787L94.2959 47.757L90.123 47.0085L90.8725 42.8303L95.0453 43.5787Z" fill="#00eeff"/>
<path d="M95.7948 39.4032L95.0459 43.5788L90.873 42.8303L91.622 38.6547L95.7948 39.4032Z" fill="#00eeff"/>
<path d="M96.5429 35.2274L95.7939 39.403L91.6211 38.6545L92.37 34.479L96.5429 35.2274Z" fill="#00eeff"/>
<path d="M97.2924 31.0547L96.5439 35.2276L92.3711 34.4791L93.1196 30.3062L97.2924 31.0547Z" fill="#00eeff"/>
<path d="M98.0404 26.8817L97.292 31.0546L93.1191 30.3062L93.8676 26.1333L98.0404 26.8817Z" fill="white"/>
<path d="M98.789 22.7063L98.04 26.8819L93.8672 26.1334L94.6161 21.9579L98.789 22.7063Z" fill="#00eeff"/>
<path d="M99.539 18.5307L98.79 22.7062L94.6172 21.9578L95.3661 17.7822L99.539 18.5307Z" fill="#00eeff"/>
<path d="M100.287 14.3578L99.5381 18.5307L95.3652 17.7822L96.1137 13.6093L100.287 14.3578Z" fill="#00eeff"/>
<path d="M84.133 80.4024L83.3846 84.5752L79.209 83.8263L79.9575 79.6534L84.133 80.4024Z" fill="#551826"/>
<path d="M86.3796 67.8784L85.6307 72.054L81.4551 71.3051L82.204 67.1295L86.3796 67.8784Z" fill="#551826"/>
<path d="M89.3737 51.1814L88.6248 55.357L84.4492 54.608L85.1982 50.4325L89.3737 51.1814Z" fill="#551826"/>
<path d="M90.1233 47.0086L89.3748 51.1814L85.1992 50.4325L85.9477 46.2596L90.1233 47.0086Z" fill="#00eeff"/>
<path d="M90.8723 42.8302L90.1228 47.0085L85.9473 46.2595L86.6967 42.0813L90.8723 42.8302Z" fill="#00eeff"/>
<path d="M91.6218 38.6546L90.8728 42.8303L86.6973 42.0813L87.4462 37.9057L91.6218 38.6546Z" fill="#00eeff"/>
<path d="M92.3698 34.479L91.6209 38.6546L87.4453 37.9056L88.1943 33.7301L92.3698 34.479Z" fill="#00eeff"/>
<path d="M93.1194 30.3062L92.3709 34.4791L88.1953 33.7301L88.9438 29.5572L93.1194 30.3062Z" fill="#00eeff"/>
<path d="M93.8674 26.1333L93.1189 30.3062L88.9434 29.5573L89.6918 25.3844L93.8674 26.1333Z" fill="#00eeff"/>
<path d="M94.6159 21.9578L93.867 26.1334L89.6914 25.3844L90.4404 21.2088L94.6159 21.9578Z" fill="#00eeff"/>
<path d="M95.3659 17.7822L94.617 21.9578L90.4414 21.2089L91.1904 17.0333L95.3659 17.7822Z" fill="#00eeff"/>
<path d="M96.1135 13.6093L95.365 17.7822L91.1895 17.0332L91.9379 12.8603L96.1135 13.6093Z" fill="#00eeff"/>
<path d="M79.9585 79.6535L79.21 83.8264L75.0371 83.0779L75.7856 78.905L79.9585 79.6535Z" fill="#551826"/>
<path d="M81.4546 71.305L80.7061 75.4778L76.5332 74.7294L77.2817 70.5565L81.4546 71.305Z" fill="#551826"/>
<path d="M85.1992 50.4325L84.4502 54.6081L80.2773 53.8596L81.0263 49.684L85.1992 50.4325Z" fill="#551826"/>
<path d="M85.9467 46.2597L85.1983 50.4326L81.0254 49.6841L81.7739 45.5112L85.9467 46.2597Z" fill="#00eeff"/>
<path d="M86.6977 42.0813L85.9483 46.2596L81.7754 45.5111L82.5248 41.3328L86.6977 42.0813Z" fill="#00eeff"/>
<path d="M87.4453 37.9057L86.6963 42.0814L82.5234 41.3329L83.2724 37.1573L87.4453 37.9057Z" fill="#00eeff"/>
<path d="M88.1953 33.7301L87.4463 37.9057L83.2734 37.1572L84.0224 32.9817L88.1953 33.7301Z" fill="#00eeff"/>
<path d="M88.9428 29.5573L88.1944 33.7302L84.0215 32.9817L84.77 28.8088L88.9428 29.5573Z" fill="#00eeff"/>
<path d="M89.6928 25.3844L88.9444 29.5573L84.7715 28.8088L85.52 24.636L89.6928 25.3844Z" fill="#00eeff"/>
<path d="M90.4414 21.2089L89.6924 25.3845L85.5195 24.636L86.2685 20.4604L90.4414 21.2089Z" fill="#00eeff"/>
<path d="M91.1894 17.0333L90.4405 21.2089L86.2676 20.4604L87.0165 16.2849L91.1894 17.0333Z" fill="#00eeff"/>
<path d="M91.9389 12.8604L91.1905 17.0333L87.0176 16.2848L87.766 12.1119L91.9389 12.8604Z" fill="#00eeff"/>
<path d="M67.5481 124.826L66.7987 129.004L62.623 128.255L63.3725 124.077L67.5481 124.826Z" fill="#00eeff"/>
<path d="M68.2976 120.65L67.5487 124.826L63.373 124.077L64.122 119.901L68.2976 120.65Z" fill="#00eeff"/>
<path d="M69.0462 116.477L68.2977 120.65L64.1221 119.901L64.8705 115.728L69.0462 116.477Z" fill="#00eeff"/>
<path d="M69.7947 112.302L69.0457 116.477L64.8701 115.728L65.6191 111.553L69.7947 112.302Z" fill="#00eeff"/>
<path d="M70.5432 108.129L69.7948 112.302L65.6191 111.553L66.3676 107.38L70.5432 108.129Z" fill="#00eeff"/>
<path d="M71.2918 103.953L70.5428 108.129L66.3672 107.38L67.1161 103.204L71.2918 103.953Z" fill="#00eeff"/>
<path d="M72.0413 99.7803L71.2928 103.953L67.1172 103.204L67.8657 99.0313L72.0413 99.7803Z" fill="#EA6435"/>
<path d="M73.5374 91.4318L72.7889 95.6047L68.6133 94.8557L69.3618 90.6828L73.5374 91.4318Z" fill="#00eeff"/>
<path d="M75.7854 78.9051L75.037 83.0779L70.8613 82.329L71.6098 78.1561L75.7854 78.9051Z" fill="#EA6435"/>
<path d="M76.534 74.7295L75.785 78.9051L71.6094 78.1561L72.3583 73.9805L76.534 74.7295Z" fill="#EA6435"/>
<path d="M81.0261 49.6841L80.2772 53.8597L76.1016 53.1107L76.8505 48.9351L81.0261 49.6841Z" fill="#551826"/>
<path d="M81.7757 45.5111L81.0272 49.684L76.8516 48.9351L77.6 44.7622L81.7757 45.5111Z" fill="#00eeff"/>
<path d="M82.5247 41.3329L81.7752 45.5112L77.5996 44.7622L78.349 40.5839L82.5247 41.3329Z" fill="#00eeff"/>
<path d="M83.2722 37.1572L82.5233 41.3328L78.3477 40.5839L79.0966 36.4082L83.2722 37.1572Z" fill="#00eeff"/>
<path d="M84.0222 32.9816L83.2733 37.1572L79.0977 36.4082L79.8466 32.2326L84.0222 32.9816Z" fill="#00eeff"/>
<path d="M84.7698 28.8089L84.0213 32.9817L79.8457 32.2328L80.5942 28.0599L84.7698 28.8089Z" fill="#00eeff"/>
<path d="M85.5198 24.6359L84.7713 28.8088L80.5957 28.0598L81.3442 23.8869L85.5198 24.6359Z" fill="#00eeff"/>
<path d="M86.2683 20.4605L85.5194 24.636L81.3438 23.8871L82.0927 19.7115L86.2683 20.4605Z" fill="#00eeff"/>
<path d="M87.0164 16.2848L86.2674 20.4604L82.0918 19.7114L82.8407 15.5359L87.0164 16.2848Z" fill="white"/>
<path d="M87.7659 12.112L87.0174 16.2848L82.8418 15.5359L83.5903 11.363L87.7659 12.112Z" fill="#00eeff"/>
<path d="M63.3735 124.077L62.6241 128.255L58.4512 127.506L59.2006 123.328L63.3735 124.077Z" fill="#00eeff"/>
<path d="M64.122 119.901L63.3731 124.077L59.2002 123.328L59.9491 119.153L64.122 119.901Z" fill="#00eeff"/>
<path d="M64.8706 115.728L64.1221 119.901L59.9492 119.153L60.6977 114.98L64.8706 115.728Z" fill="#00eeff"/>
<path d="M65.6191 111.553L64.8701 115.728L60.6973 114.98L61.4462 110.804L65.6191 111.553Z" fill="#00eeff"/>
<path d="M66.3676 107.38L65.6192 111.553L61.4463 110.804L62.1948 106.631L66.3676 107.38Z" fill="#00eeff"/>
<path d="M67.1172 103.204L66.3682 107.38L62.1953 106.631L62.9443 102.456L67.1172 103.204Z" fill="#00eeff"/>
<path d="M67.8657 99.0314L67.1172 103.204L62.9443 102.456L63.6928 98.2829L67.8657 99.0314Z" fill="#EA6435"/>
<path d="M68.6142 94.8557L67.8653 99.0313L63.6924 98.2828L64.4413 94.1073L68.6142 94.8557Z" fill="#551826"/>
<path d="M69.3628 90.6829L68.6143 94.8558L64.4414 94.1073L65.1899 89.9344L69.3628 90.6829Z" fill="#00eeff"/>
<path d="M70.1113 86.5072L69.3623 90.6828L65.1895 89.9343L65.9384 85.7587L70.1113 86.5072Z" fill="#551826"/>
<path d="M70.8618 82.329L70.1123 86.5073L65.9395 85.7588L66.6889 81.5805L70.8618 82.329Z" fill="#551826"/>
<path d="M71.6089 78.1562L70.8604 82.329L66.6875 81.5806L67.436 77.4077L71.6089 78.1562Z" fill="#FFD102"/>
<path d="M72.3593 73.9806L71.6104 78.1562L67.4375 77.4077L68.1865 73.2321L72.3593 73.9806Z" fill="#EA6435"/>
<path d="M73.1069 69.8076L72.3584 73.9805L68.1855 73.2321L68.934 69.0592L73.1069 69.8076Z" fill="#551826"/>
<path d="M73.8554 65.6321L73.1065 69.8077L68.9336 69.0592L69.6825 64.8836L73.8554 65.6321Z" fill="#551826"/>
<path d="M74.6049 61.4593L73.8565 65.6321L69.6836 64.8837L70.4321 60.7108L74.6049 61.4593Z" fill="#551826"/>
<path d="M75.3535 57.2836L74.6045 61.4592L70.4316 60.7107L71.1806 56.5351L75.3535 57.2836Z" fill="#551826"/>
<path d="M76.101 53.1106L75.3526 57.2835L71.1797 56.535L71.9282 52.3622L76.101 53.1106Z" fill="#551826"/>
<path d="M76.8515 48.9352L76.1026 53.1108L71.9297 52.3623L72.6786 48.1867L76.8515 48.9352Z" fill="#551826"/>
<path d="M77.5991 44.7622L76.8506 48.9351L72.6777 48.1866L73.4262 44.0138L77.5991 44.7622Z" fill="#00eeff"/>
<path d="M78.3481 40.584L77.5987 44.7623L73.4258 44.0138L74.1752 39.8355L78.3481 40.584Z" fill="white"/>
<path d="M79.0976 36.4083L78.3487 40.5839L74.1758 39.8354L74.9247 35.6598L79.0976 36.4083Z" fill="#00eeff"/>
<path d="M79.8476 32.2327L79.0987 36.4083L74.9258 35.6598L75.6747 31.4842L79.8476 32.2327Z" fill="#00eeff"/>
<path d="M80.5952 28.06L79.8467 32.2328L75.6738 31.4844L76.4223 27.3115L80.5952 28.06Z" fill="#00eeff"/>
<path d="M81.3432 23.887L80.5948 28.0599L76.4219 27.3114L77.1703 23.1385L81.3432 23.887Z" fill="#00eeff"/>
<path d="M82.0918 19.7116L81.3428 23.8871L77.1699 23.1387L77.9189 18.9631L82.0918 19.7116Z" fill="white"/>
<path d="M82.8418 15.5359L82.0928 19.7115L77.9199 18.963L78.6689 14.7874L82.8418 15.5359Z" fill="#00eeff"/>
<path d="M83.5893 11.3631L82.8409 15.5359L78.668 14.7875L79.4164 10.6146L83.5893 11.3631Z" fill="#00eeff"/>
<path d="M59.2002 123.328L58.4507 127.506L54.2725 126.757L55.0219 122.579L59.2002 123.328Z" fill="#00eeff"/>
<path d="M59.9487 119.153L59.1997 123.328L55.0215 122.579L55.7704 118.403L59.9487 119.153Z" fill="#00eeff"/>
<path d="M60.6972 114.98L59.9488 119.153L55.7705 118.403L56.519 114.23L60.6972 114.98Z" fill="#00eeff"/>
<path d="M61.4458 110.804L60.6968 114.98L56.5186 114.23L57.2675 110.055L61.4458 110.804Z" fill="#00eeff"/>
<path d="M62.1943 106.631L61.4458 110.804L57.2676 110.055L58.016 105.882L62.1943 106.631Z" fill="#00eeff"/>
<path d="M62.9438 102.456L62.1949 106.631L58.0166 105.882L58.7656 101.706L62.9438 102.456Z" fill="#00eeff"/>
<path d="M63.6924 98.2829L62.9439 102.456L58.7656 101.706L59.5141 97.5334L63.6924 98.2829Z" fill="#FFD102"/>
<path d="M65.1894 89.9343L64.441 94.1072L60.2627 93.3578L61.0112 89.1849L65.1894 89.9343Z" fill="#00eeff"/>
<path d="M67.4365 77.4076L66.688 81.5805L62.5098 80.8311L63.2582 76.6582L67.4365 77.4076Z" fill="#FFD102"/>
<path d="M68.185 73.232L67.4361 77.4076L63.2578 76.6582L64.0068 72.4826L68.185 73.232Z" fill="#EA6435"/>
<path d="M72.6772 48.1865L71.9283 52.3621L67.75 51.6127L68.499 47.4371L72.6772 48.1865Z" fill="#551826"/>
<path d="M73.4267 44.0137L72.6783 48.1866L68.5 47.4371L69.2485 43.2643L73.4267 44.0137Z" fill="white"/>
<path d="M74.1757 39.8355L73.4263 44.0137L69.248 43.2643L69.9975 39.086L74.1757 39.8355Z" fill="#00eeff"/>
<path d="M74.9253 35.6597L74.1763 39.8354L69.998 39.0859L70.747 34.9103L74.9253 35.6597Z" fill="white"/>
<path d="M75.6733 31.4841L74.9244 35.6597L70.7461 34.9103L71.495 30.7347L75.6733 31.4841Z" fill="#00eeff"/>
<path d="M76.4209 27.3113L75.6724 31.4842L71.4941 30.7347L72.2426 26.5619L76.4209 27.3113Z" fill="#00eeff"/>
<path d="M77.1709 23.1384L76.4224 27.3113L72.2441 26.5619L72.9926 22.389L77.1709 23.1384Z" fill="#00eeff"/>
<path d="M77.9194 18.9629L77.1705 23.1385L72.9922 22.389L73.7411 18.2135L77.9194 18.9629Z" fill="#00eeff"/>
<path d="M78.6674 14.7874L77.9185 18.9629L73.7402 18.2135L74.4892 14.0379L78.6674 14.7874Z" fill="white"/>
<path d="M79.417 10.6145L78.6685 14.7874L74.4902 14.038L75.2387 9.86508L79.417 10.6145Z" fill="#00eeff"/>
<path d="M63.258 76.6581L62.5096 80.831L58.334 80.082L59.0825 75.9091L63.258 76.6581Z" fill="#551826"/>
<path d="M64.7551 68.3096L64.0066 72.4825L59.8311 71.7335L60.5795 67.5606L64.7551 68.3096Z" fill="#551826"/>
<path d="M68.4987 47.4371L67.7498 51.6127L63.5742 50.8638L64.3232 46.6882L68.4987 47.4371Z" fill="#551826"/>
<path d="M69.2473 43.2643L68.4988 47.4372L64.3232 46.6882L65.0717 42.5153L69.2473 43.2643Z" fill="#00eeff"/>
<path d="M69.9973 39.0859L69.2478 43.2642L65.0723 42.5153L65.8217 38.337L69.9973 39.0859Z" fill="white"/>
<path d="M70.7468 34.9104L69.9978 39.086L65.8223 38.337L66.5712 34.1614L70.7468 34.9104Z" fill="#00eeff"/>
<path d="M71.4948 30.7348L70.7459 34.9103L66.5703 34.1614L67.3193 29.9858L71.4948 30.7348Z" fill="#00eeff"/>
<path d="M72.2444 26.5619L71.4959 30.7348L67.3203 29.9858L68.0688 25.813L72.2444 26.5619Z" fill="#00eeff"/>
<path d="M72.9924 22.3891L72.2439 26.5619L68.0684 25.813L68.8168 21.6401L72.9924 22.3891Z" fill="#00eeff"/>
<path d="M73.7409 18.2135L72.992 22.3891L68.8164 21.6401L69.5654 17.4646L73.7409 18.2135Z" fill="#00eeff"/>
<path d="M74.489 14.0379L73.74 18.2134L69.5645 17.4645L70.3134 13.2889L74.489 14.0379Z" fill="#00eeff"/>
<path d="M75.2385 9.86501L74.49 14.0379L70.3145 13.2889L71.0629 9.11606L75.2385 9.86501Z" fill="#00eeff"/>
<path d="M59.0825 75.9092L58.334 80.0821L54.1611 79.3336L54.9096 75.1607L59.0825 75.9092Z" fill="#551826"/>
<path d="M61.3291 63.3852L60.5801 67.5607L56.4072 66.8123L57.1562 62.6367L61.3291 63.3852Z" fill="#551826"/>
<path d="M64.3242 46.6883L63.5752 50.8638L59.4023 50.1154L60.1513 45.9398L64.3242 46.6883Z" fill="#551826"/>
<path d="M65.0727 42.5153L64.3242 46.6882L60.1514 45.9397L60.8998 41.7668L65.0727 42.5153Z" fill="#00eeff"/>
<path d="M65.8217 38.3371L65.0723 42.5153L60.8994 41.7668L61.6488 37.5886L65.8217 38.3371Z" fill="#00eeff"/>
<path d="M66.5703 34.1615L65.8213 38.3371L61.6484 37.5886L62.3974 33.413L66.5703 34.1615Z" fill="#00eeff"/>
<path d="M67.3193 29.9857L66.5703 34.1613L62.3975 33.4128L63.1464 29.2373L67.3193 29.9857Z" fill="#00eeff"/>
<path d="M68.0678 25.813L67.3194 29.9859L63.1465 29.2374L63.895 25.0645L68.0678 25.813Z" fill="#00eeff"/>
<path d="M68.8169 21.64L68.0684 25.8129L63.8955 25.0645L64.644 20.8916L68.8169 21.64Z" fill="#00eeff"/>
<path d="M69.5654 17.4646L68.8164 21.6402L64.6436 20.8917L65.3925 16.7162L69.5654 17.4646Z" fill="#00eeff"/>
<path d="M70.3144 13.289L69.5655 17.4645L65.3926 16.7161L66.1415 12.5405L70.3144 13.289Z" fill="#00eeff"/>
<path d="M71.0639 9.11611L70.3155 13.289L66.1426 12.5405L66.891 8.36764L71.0639 9.11611Z" fill="#00eeff"/>
<path d="M54.9094 75.1607L54.1609 79.3335L49.9854 78.5846L50.7338 74.4117L54.9094 75.1607Z" fill="#551826"/>
<path d="M57.9045 58.4638L57.156 62.6366L52.9805 61.8877L53.7289 57.7148L57.9045 58.4638Z" fill="#551826"/>
<path d="M59.4016 50.1153L58.6531 54.2881L54.4775 53.5392L55.226 49.3663L59.4016 50.1153Z" fill="#551826"/>
<path d="M60.1511 45.9397L59.4021 50.1153L55.2266 49.3663L55.9755 45.1908L60.1511 45.9397Z" fill="#00eeff"/>
<path d="M60.8996 41.7669L60.1512 45.9397L55.9756 45.1908L56.7241 41.0179L60.8996 41.7669Z" fill="#00eeff"/>
<path d="M61.6486 37.5885L60.8992 41.7668L56.7236 41.0178L57.4731 36.8396L61.6486 37.5885Z" fill="#00eeff"/>
<path d="M62.3982 33.4129L61.6492 37.5886L57.4736 36.8396L58.2226 32.664L62.3982 33.4129Z" fill="#00eeff"/>
<path d="M63.1462 29.2373L62.3973 33.4129L58.2217 32.6639L58.9706 28.4884L63.1462 29.2373Z" fill="#00eeff"/>
<path d="M63.8947 25.0645L63.1463 29.2374L58.9707 28.4884L59.7192 24.3155L63.8947 25.0645Z" fill="#00eeff"/>
<path d="M64.6438 20.8916L63.8953 25.0645L59.7197 24.3156L60.4682 20.1427L64.6438 20.8916Z" fill="#00eeff"/>
<path d="M65.3923 16.7161L64.6433 20.8917L60.4678 20.1427L61.2167 15.9671L65.3923 16.7161Z" fill="#00eeff"/>
<path d="M66.1413 12.5405L65.3924 16.7161L61.2168 15.9672L61.9657 11.7916L66.1413 12.5405Z" fill="#00eeff"/>
<path d="M66.8899 8.36757L66.1414 12.5405L61.9658 11.7915L62.7143 7.61862L66.8899 8.36757Z" fill="#00eeff"/>
<path d="M50.7339 74.4118L49.9854 78.5847L45.8125 77.8362L46.561 73.6633L50.7339 74.4118Z" fill="#551826"/>
<path d="M54.4785 53.5393L53.7295 57.7149L49.5566 56.9664L50.3056 52.7908L54.4785 53.5393Z" fill="#551826"/>
<path d="M55.227 49.3664L54.4785 53.5392L50.3057 52.7908L51.0541 48.6179L55.227 49.3664Z" fill="#551826"/>
<path d="M55.9755 45.1908L55.2266 49.3664L51.0537 48.6179L51.8027 44.4423L55.9755 45.1908Z" fill="#00eeff"/>
<path d="M56.7241 41.018L55.9756 45.1909L51.8027 44.4424L52.5512 40.2695L56.7241 41.018Z" fill="#00eeff"/>
<path d="M57.4731 36.8396L56.7237 41.0179L52.5508 40.2694L53.3002 36.0911L57.4731 36.8396Z" fill="#00eeff"/>
<path d="M58.2226 32.664L57.4737 36.8397L53.3008 36.0912L54.0497 31.9156L58.2226 32.664Z" fill="#00eeff"/>
<path d="M58.9716 28.4884L58.2227 32.664L54.0498 31.9155L54.7988 27.74L58.9716 28.4884Z" fill="#00eeff"/>
<path d="M59.7202 24.3156L58.9717 28.4885L54.7988 27.74L55.5473 23.5671L59.7202 24.3156Z" fill="#00eeff"/>
<path d="M60.4682 20.1427L59.7198 24.3156L55.5469 23.5671L56.2953 19.3943L60.4682 20.1427Z" fill="#00eeff"/>
<path d="M61.2177 15.9672L60.4688 20.1428L56.2959 19.3943L57.0449 15.2187L61.2177 15.9672Z" fill="#00eeff"/>
<path d="M61.9658 11.7916L61.2168 15.9672L57.0439 15.2188L57.7929 11.0432L61.9658 11.7916Z" fill="#00eeff"/>
<path d="M46.5618 73.6634L45.8133 77.8362L41.6377 77.0873L42.3862 72.9144L46.5618 73.6634Z" fill="#551826"/>
<path d="M50.3054 52.7908L49.5565 56.9664L45.3809 56.2174L46.1298 52.0418L50.3054 52.7908Z" fill="#551826"/>
<path d="M51.054 48.6178L50.3055 52.7907L46.1299 52.0417L46.8784 47.8689L51.054 48.6178Z" fill="#00eeff"/>
<path d="M51.8025 44.4424L51.0536 48.618L46.8779 47.869L47.6269 43.6934L51.8025 44.4424Z" fill="#00eeff"/>
<path d="M52.551 40.2694L51.8026 44.4423L47.627 43.6934L48.3754 39.5205L52.551 40.2694Z" fill="#00eeff"/>
<path d="M53.3001 36.0912L52.5506 40.2695L48.375 39.5205L49.1244 35.3422L53.3001 36.0912Z" fill="#00eeff"/>
<path d="M54.0496 31.9155L53.3006 36.0911L49.125 35.3422L49.874 31.1665L54.0496 31.9155Z" fill="#00eeff"/>
<path d="M54.7986 27.7399L54.0496 31.9155L49.874 31.1665L50.623 26.9909L54.7986 27.7399Z" fill="#00eeff"/>
<path d="M55.5471 23.5672L54.7987 27.7401L50.623 26.9911L51.3715 22.8182L55.5471 23.5672Z" fill="#00eeff"/>
<path d="M56.2952 19.3942L55.5467 23.5671L51.3711 22.8181L52.1196 18.6452L56.2952 19.3942Z" fill="#00eeff"/>
<path d="M57.0447 15.2188L56.2957 19.3943L52.1201 18.6454L52.8691 14.4698L57.0447 15.2188Z" fill="#00eeff"/>
<path d="M57.7937 11.0431L57.0448 15.2187L52.8691 14.4697L53.6181 10.2942L57.7937 11.0431Z" fill="#00eeff"/>
<path d="M43.1347 68.7389L42.3858 72.9145L38.2129 72.166L38.9618 67.9904L43.1347 68.7389Z" fill="#551826"/>
<path d="M43.8833 64.5659L43.1348 68.7388L38.9619 67.9904L39.7104 63.8175L43.8833 64.5659Z" fill="#551826"/>
<path d="M44.6328 60.3904L43.8838 64.566L39.7109 63.8175L40.4599 59.6419L44.6328 60.3904Z" fill="#551826"/>
<path d="M45.3813 56.2176L44.6328 60.3904L40.46 59.642L41.2084 55.4691L45.3813 56.2176Z" fill="#551826"/>
<path d="M46.1298 52.0419L45.3809 56.2175L41.208 55.469L41.957 51.2934L46.1298 52.0419Z" fill="#00eeff"/>
<path d="M46.8784 47.8689L46.1299 52.0418L41.957 51.2933L42.7055 47.1205L46.8784 47.8689Z" fill="#00eeff"/>
<path d="M47.6269 43.6935L46.878 47.8691L42.7051 47.1206L43.454 42.945L47.6269 43.6935Z" fill="#00eeff"/>
<path d="M48.3755 39.5205L47.627 43.6934L43.4541 42.9449L44.2026 38.7721L48.3755 39.5205Z" fill="#00eeff"/>
<path d="M49.1254 35.3423L48.376 39.5206L44.2031 38.7721L44.9526 34.5938L49.1254 35.3423Z" fill="#00eeff"/>
<path d="M49.874 31.1666L49.125 35.3422L44.9521 34.5938L45.7011 30.4181L49.874 31.1666Z" fill="#00eeff"/>
<path d="M50.623 26.991L49.8741 31.1666L45.7012 30.4181L46.4501 26.2425L50.623 26.991Z" fill="white"/>
<path d="M51.3715 22.8183L50.6231 26.9911L46.4502 26.2427L47.1987 22.0698L51.3715 22.8183Z" fill="#00eeff"/>
<path d="M52.1196 18.6453L51.3711 22.8182L47.1982 22.0697L47.9467 17.8968L52.1196 18.6453Z" fill="#00eeff"/>
<path d="M52.8691 14.4699L52.1201 18.6454L47.9473 17.897L48.6962 13.7214L52.8691 14.4699Z" fill="#00eeff"/>
<path d="M53.6181 10.2942L52.8692 14.4698L48.6963 13.7213L49.4452 9.54574L53.6181 10.2942Z" fill="#00eeff"/>
<path d="M38.2131 72.1659L37.4646 76.3388L33.2891 75.5898L34.0375 71.417L38.2131 72.1659Z" fill="#00eeff"/>
<path d="M38.9616 67.9903L38.2127 72.1659L34.0371 71.417L34.7861 67.2414L38.9616 67.9903Z" fill="#00eeff"/>
<path d="M39.7102 63.8174L38.9617 67.9903L34.7861 67.2413L35.5346 63.0685L39.7102 63.8174Z" fill="#00eeff"/>
<path d="M40.4597 59.642L39.7107 63.8176L35.5352 63.0686L36.2841 58.893L40.4597 59.642Z" fill="#00eeff"/>
<path d="M41.2082 55.469L40.4598 59.6419L36.2842 58.8929L37.0326 54.7201L41.2082 55.469Z" fill="#00eeff"/>
<path d="M41.9568 51.2934L41.2078 55.469L37.0322 54.7201L37.7812 50.5445L41.9568 51.2934Z" fill="#00eeff"/>
<path d="M42.7053 47.1205L41.9568 51.2934L37.7812 50.5444L38.5297 46.3716L42.7053 47.1205Z" fill="#00eeff"/>
<path d="M43.4538 42.945L42.7049 47.1205L38.5293 46.3716L39.2782 42.196L43.4538 42.945Z" fill="#00eeff"/>
<path d="M44.2024 38.7721L43.4539 42.945L39.2783 42.196L40.0268 38.0232L44.2024 38.7721Z" fill="#00eeff"/>
<path d="M44.9524 34.5938L44.2029 38.772L40.0273 38.0231L40.7768 33.8448L44.9524 34.5938Z" fill="#00eeff"/>
<path d="M45.7009 30.4182L44.9519 34.5938L40.7764 33.8448L41.5253 29.6692L45.7009 30.4182Z" fill="white"/>
<path d="M46.4499 26.2426L45.701 30.4181L41.5254 29.6692L42.2743 25.4936L46.4499 26.2426Z" fill="#00eeff"/>
<path d="M47.1985 22.0697L46.45 26.2426L42.2744 25.4937L43.0229 21.3208L47.1985 22.0697Z" fill="white"/>
<path d="M47.9475 17.8969L47.199 22.0698L43.0234 21.3208L43.7719 17.1479L47.9475 17.8969Z" fill="#00eeff"/>
<path d="M48.696 13.7213L47.9471 17.8969L43.7715 17.1479L44.5204 12.9724L48.696 13.7213Z" fill="#00eeff"/>
<path d="M34.0366 71.4169L33.2881 75.5898L29.1152 74.8413L29.8637 70.6684L34.0366 71.4169Z" fill="#00eeff"/>
<path d="M34.7861 67.2413L34.0371 71.4169L29.8643 70.6685L30.6132 66.4929L34.7861 67.2413Z" fill="white"/>
<path d="M35.5346 63.0684L34.7862 67.2413L30.6133 66.4928L31.3618 62.3199L35.5346 63.0684Z" fill="#00eeff"/>
<path d="M36.2832 58.8928L35.5342 63.0684L31.3613 62.3199L32.1103 58.1444L36.2832 58.8928Z" fill="#00eeff"/>
<path d="M37.0317 54.72L36.2832 58.8929L32.1104 58.1444L32.8588 53.9715L37.0317 54.72Z" fill="#00eeff"/>
<path d="M37.7812 50.5444L37.0323 54.72L32.8594 53.9716L33.6083 49.796L37.7812 50.5444Z" fill="#00eeff"/>
<path d="M38.5298 46.3714L37.7813 50.5442L33.6084 49.7958L34.3569 45.6229L38.5298 46.3714Z" fill="#00eeff"/>
<path d="M39.2783 42.1959L38.5293 46.3715L34.3564 45.623L35.1054 41.4475L39.2783 42.1959Z" fill="#00eeff"/>
<path d="M40.0268 38.023L39.2784 42.1959L35.1055 41.4474L35.8539 37.2745L40.0268 38.023Z" fill="#00eeff"/>
<path d="M40.7758 33.8447L40.0264 38.023L35.8535 37.2745L36.6029 33.0963L40.7758 33.8447Z" fill="#00eeff"/>
<path d="M41.5254 29.6692L40.7764 33.8448L36.6035 33.0963L37.3525 28.9207L41.5254 29.6692Z" fill="#00eeff"/>
<path d="M42.2744 25.4934L41.5254 29.669L37.3525 28.9205L38.1015 24.745L42.2744 25.4934Z" fill="white"/>
<path d="M43.0229 21.3207L42.2744 25.4936L38.1016 24.7451L38.85 20.5722L43.0229 21.3207Z" fill="#00eeff"/>
<path d="M43.771 17.1477L43.0225 21.3206L38.8496 20.5721L39.5981 16.3993L43.771 17.1477Z" fill="#00eeff"/>
<path d="M29.8645 70.6684L29.116 74.8412L24.9404 74.0923L25.6889 69.9194L29.8645 70.6684Z" fill="#00eeff"/>
<path d="M30.613 66.4929L29.864 70.6685L25.6885 69.9196L26.4374 65.744L30.613 66.4929Z" fill="#00eeff"/>
<path d="M31.3615 62.3198L30.6131 66.4927L26.4375 65.7438L27.186 61.5709L31.3615 62.3198Z" fill="#00eeff"/>
<path d="M32.1101 58.1444L31.3611 62.32L27.1855 61.571L27.9345 57.3955L32.1101 58.1444Z" fill="#00eeff"/>
<path d="M32.8586 53.9715L32.1101 58.1443L27.9346 57.3954L28.683 53.2225L32.8586 53.9715Z" fill="#00eeff"/>
<path d="M33.6081 49.7959L32.8592 53.9715L28.6836 53.2225L29.4326 49.0469L33.6081 49.7959Z" fill="white"/>
<path d="M34.3567 45.6229L33.6082 49.7958L29.4326 49.0469L30.1811 44.874L34.3567 45.6229Z" fill="#00eeff"/>
<path d="M35.1052 41.4474L34.3562 45.623L30.1807 44.874L30.9296 40.6985L35.1052 41.4474Z" fill="#00eeff"/>
<path d="M35.8537 37.2746L35.1053 41.4474L30.9297 40.6985L31.6782 36.5256L35.8537 37.2746Z" fill="#00eeff"/>
<path d="M36.6027 33.0962L35.8533 37.2745L31.6777 36.5255L32.4272 32.3472L36.6027 33.0962Z" fill="#00eeff"/>
<path d="M37.3523 28.9206L36.6033 33.0962L32.4277 32.3473L33.1767 28.1717L37.3523 28.9206Z" fill="#00eeff"/>
<path d="M38.1013 24.745L37.3523 28.9206L33.1768 28.1716L33.9257 23.9961L38.1013 24.745Z" fill="#00eeff"/>
<path d="M38.8498 20.5722L38.1014 24.745L33.9258 23.9961L34.6743 19.8232L38.8498 20.5722Z" fill="#00eeff"/>
<path d="M39.5979 16.3993L38.8494 20.5722L34.6738 19.8232L35.4223 15.6504L39.5979 16.3993Z" fill="#00eeff"/>
<path d="M25.6885 69.9194L24.94 74.0923L20.7617 73.3429L21.5102 69.17L25.6885 69.9194Z" fill="#00eeff"/>
<path d="M26.438 65.744L25.689 69.9196L21.5107 69.1702L22.2597 64.9946L26.438 65.744Z" fill="#00eeff"/>
<path d="M27.1865 61.5711L26.438 65.7439L22.2598 64.9945L23.0082 60.8216L27.1865 61.5711Z" fill="#00eeff"/>
<path d="M27.935 57.3955L27.1861 61.5711L23.0078 60.8217L23.7568 56.6461L27.935 57.3955Z" fill="#00eeff"/>
<path d="M28.6836 53.2225L27.9351 57.3954L23.7568 56.646L24.5053 52.4731L28.6836 53.2225Z" fill="white"/>
<path d="M29.4321 49.047L28.6831 53.2226L24.5049 52.4731L25.2538 48.2975L29.4321 49.047Z" fill="#00eeff"/>
<path d="M30.1806 44.874L29.4322 49.0469L25.2539 48.2975L26.0024 44.1246L30.1806 44.874Z" fill="white"/>
<path d="M30.9301 40.6985L30.1812 44.8741L26.0029 44.1246L26.7519 39.9491L30.9301 40.6985Z" fill="#00eeff"/>
<path d="M31.6787 36.5256L30.9302 40.6985L26.752 39.9491L27.5004 35.7762L31.6787 36.5256Z" fill="#00eeff"/>
<path d="M32.4277 32.3473L31.6783 36.5256L27.5 35.7761L28.2494 31.5979L32.4277 32.3473Z" fill="#00eeff"/>
<path d="M33.1772 28.1717L32.4283 32.3473L28.25 31.5979L28.999 27.4223L33.1772 28.1717Z" fill="#00eeff"/>
<path d="M33.9253 23.9961L33.1763 28.1717L28.998 27.4222L29.747 23.2467L33.9253 23.9961Z" fill="#00eeff"/>
<path d="M34.6738 19.8233L33.9253 23.9961L29.7471 23.2467L30.4955 19.0738L34.6738 19.8233Z" fill="#00eeff"/>
<path d="M21.51 69.1701L20.7616 73.343L16.5859 72.594L17.3344 68.4211L21.51 69.1701Z" fill="#00eeff"/>
<path d="M22.2595 64.9945L21.5106 69.1701L17.335 68.4211L18.0839 64.2455L22.2595 64.9945Z" fill="#00eeff"/>
<path d="M23.0081 60.8216L22.2596 64.9944L18.084 64.2455L18.8325 60.0726L23.0081 60.8216Z" fill="#00eeff"/>
<path d="M23.7566 56.646L23.0077 60.8216L18.832 60.0726L19.581 55.8971L23.7566 56.646Z" fill="#00eeff"/>
<path d="M24.5051 52.4732L23.7567 56.6461L19.5811 55.8971L20.3295 51.7242L24.5051 52.4732Z" fill="#00eeff"/>
<path d="M25.2537 48.2976L24.5047 52.4732L20.3291 51.7242L21.0781 47.5486L25.2537 48.2976Z" fill="white"/>
<path d="M26.0022 44.1245L25.2538 48.2974L21.0781 47.5485L21.8266 43.3756L26.0022 44.1245Z" fill="#00eeff"/>
<path d="M26.7517 39.9491L26.0028 44.1247L21.8271 43.3757L22.5761 39.2002L26.7517 39.9491Z" fill="#00eeff"/>
<path d="M27.5003 35.7762L26.7518 39.949L22.5762 39.2001L23.3246 35.0272L27.5003 35.7762Z" fill="#00eeff"/>
<path d="M28.2493 31.5979L27.4998 35.7762L23.3242 35.0272L24.0737 30.849L28.2493 31.5979Z" fill="#00eeff"/>
<path d="M28.9988 27.4223L28.2498 31.598L24.0742 30.849L24.8232 26.6734L28.9988 27.4223Z" fill="#00eeff"/>
<path d="M29.7478 23.2466L28.9989 27.4222L24.8232 26.6732L25.5722 22.4976L29.7478 23.2466Z" fill="#00eeff"/>
<path d="M17.3354 68.4212L16.5869 72.5941L12.4141 71.8456L13.1625 67.6727L17.3354 68.4212Z" fill="#00eeff"/>
<path d="M18.0839 64.2456L17.335 68.4212L13.1621 67.6727L13.9111 63.4971L18.0839 64.2456Z" fill="white"/>
<path d="M18.8325 60.0727L18.084 64.2455L13.9111 63.4971L14.6596 59.3242L18.8325 60.0727Z" fill="#00eeff"/>
<path d="M19.581 55.8971L18.8321 60.0727L14.6592 59.3242L15.4081 55.1486L19.581 55.8971Z" fill="#00eeff"/>
<path d="M20.3296 51.7243L19.5811 55.8972L15.4082 55.1487L16.1567 50.9758L20.3296 51.7243Z" fill="#00eeff"/>
<path d="M21.0791 47.5486L20.3301 51.7242L16.1572 50.9757L16.9062 46.8001L21.0791 47.5486Z" fill="#00eeff"/>
<path d="M21.8276 43.3756L21.0791 47.5485L16.9062 46.8L17.6547 42.6272L21.8276 43.3756Z" fill="#00eeff"/>
<path d="M22.5761 39.2002L21.8272 43.3758L17.6543 42.6273L18.4032 38.4517L22.5761 39.2002Z" fill="#00eeff"/>
<path d="M23.3247 35.0272L22.5762 39.2001L18.4033 38.4517L19.1518 34.2788L23.3247 35.0272Z" fill="#00eeff"/>
<path d="M24.0737 30.849L23.3242 35.0273L19.1514 34.2788L19.9008 30.1005L24.0737 30.849Z" fill="#00eeff"/>
<path d="M13.1623 67.6726L12.4139 71.8455L8.23828 71.0966L8.98675 66.9237L13.1623 67.6726Z" fill="#00eeff"/>
<path d="M13.9109 63.4972L13.1619 67.6728L8.98633 66.9238L9.73528 62.7482L13.9109 63.4972Z" fill="#00eeff"/>
<path d="M14.6594 59.3241L13.9109 63.497L9.73535 62.748L10.4838 58.5752L14.6594 59.3241Z" fill="white"/>
<path d="M15.4079 55.1487L14.659 59.3243L10.4834 58.5753L11.2324 54.3997L15.4079 55.1487Z" fill="#00eeff"/>
<path d="M16.1565 50.9757L15.408 55.1486L11.2324 54.3997L11.9809 50.2268L16.1565 50.9757Z" fill="#00eeff"/>
<path d="M16.906 46.8002L16.157 50.9758L11.9814 50.2268L12.7304 46.0512L16.906 46.8002Z" fill="#00eeff"/>
<path d="M17.6545 42.6272L16.906 46.8001L12.7305 46.0511L13.4789 41.8783L17.6545 42.6272Z" fill="#00eeff"/>
</g>
</svg>
