<svg width="66" height="20" viewBox="0 0 66 20" fill="none" xmlns="http://www.w3.org/2000/svg">
<path d="M32.9918 14.0085L32.9137 14.7897C32.8522 15.4147 32.7338 16.0374 32.5586 16.6576C32.3881 17.2826 32.2082 17.8484 32.0188 18.3551C31.8342 18.8617 31.685 19.2594 31.5714 19.5483H29.6112C29.6822 19.2689 29.7792 18.8783 29.9023 18.3764C30.0254 17.8792 30.1415 17.3205 30.2504 16.7002C30.3593 16.08 30.4279 15.4479 30.4563 14.8039L30.4918 14.0085H32.9918Z" fill="black"/>
<path d="M39.9719 15.9971L44.9933 1.45166H48.9563L53.9705 15.9971H39.9719ZM44.0771 13.4616H49.8725L47.0316 4.77552H46.918L44.0771 13.4616Z" fill="black"/>
<path d="M15 1.99712H25V15.9971H15V1.99712Z" fill="black"/>
<path d="M59 1.45166H61.8421V2.67615H63.7368V4.51288H65V13.3904H63.4211V14.921H61.8421V16.4517H59V14.921H60.2632V13.3904H62.1579V11.8598H63.4211V5.73737H61.8421V4.51288H60.2632V2.67615H59V1.45166Z" fill="black" stroke="black"/>
<path d="M7 16.4517H4.15789V15.2272H2.26316V13.3904H1L1 4.51288H2.57895V2.98227H4.15789V1.45166H7V2.98227H5.73684V4.51288H3.84211V6.0435H2.57895V12.1659H4.15789V13.3904H5.73684V15.2272H7V16.4517Z" fill="black" stroke="black"/>
</svg>
