<svg width="340" height="297" viewBox="0 0 340 297" fill="none" xmlns="http://www.w3.org/2000/svg">
<rect x="225.304" y="159.484" width="20" height="9" transform="rotate(130.178 225.304 159.484)" fill="#62bcf8"/>
<rect x="151.191" y="96.9038" width="20" height="9" transform="rotate(130.178 151.191 96.9038)" fill="#62bcf8"/>
<rect x="157.218" y="75.8164" width="20" height="9" transform="rotate(130.178 157.218 75.8164)" fill="#62bcf8"/>
<rect x="162.6" y="55.4932" width="19" height="9" transform="rotate(130.178 162.6 55.4932)" fill="#62bcf8"/>
<rect x="131.412" y="106.378" width="20" height="9" transform="rotate(130.178 131.412 106.378)" fill="#62bcf8"/>
<rect x="111.632" y="115.853" width="20" height="9" transform="rotate(130.178 111.632 115.853)" fill="#62bcf8"/>
<rect x="91.8525" y="125.327" width="5" height="5" transform="rotate(130.178 91.8525 125.327)" fill="#62bcf8"/>
<rect x="159.595" y="45.1025" width="6" height="5" transform="rotate(130.178 159.595 45.1025)" fill="#62bcf8"/>
<rect x="224.233" y="146.802" width="9" height="20" transform="rotate(130.178 224.233 146.802)" fill="#62bcf8"/>
<rect x="218.428" y="153.678" width="9" height="88" transform="rotate(130.178 218.428 153.678)" fill="#62bcf8"/>
<rect x="208.953" y="133.898" width="9" height="77" transform="rotate(130.178 208.953 133.898)" fill="#62bcf8"/>
<rect x="199.479" y="114.119" width="9" height="57" transform="rotate(130.178 199.479 114.119)" fill="#62bcf8"/>
<rect x="190.004" y="94.3389" width="7" height="46" transform="rotate(130.178 190.004 94.3389)" fill="#62bcf8"/>
<rect x="185.488" y="99.6875" width="2" height="37" transform="rotate(130.178 185.488 99.6875)" fill="#62bcf8"/>
<rect x="180.529" y="74.5596" width="9" height="26" transform="rotate(130.178 180.529 74.5596)" fill="#62bcf8"/>
<rect x="171.056" y="54.7798" width="9" height="6" transform="rotate(130.178 171.056 54.7798)" fill="#62bcf8"/>
<rect x="171.056" y="54.7798" width="6" height="15" transform="rotate(130.178 171.056 54.7798)" fill="#62bcf8"/>
<rect width="11" height="88" transform="matrix(0.645163 -0.764045 -0.764045 -0.645163 205.524 168.959)" fill="#62bcf8"/>
<rect width="10" height="77" transform="matrix(0.645163 -0.764045 -0.764045 -0.645163 183.792 163.696)" fill="#62bcf8"/>
<rect width="8" height="57" transform="matrix(0.645163 -0.764045 -0.764045 -0.645163 163.35 156.905)" fill="#62bcf8"/>
<rect width="7" height="46" transform="matrix(0.645163 -0.764045 -0.764045 -0.645163 142.262 150.878)" fill="#62bcf8"/>
<rect width="2" height="37" transform="matrix(0.645163 -0.764045 -0.764045 -0.645163 146.778 145.53)" fill="#62bcf8"/>
<rect width="10" height="26" transform="matrix(0.645163 -0.764045 -0.764045 -0.645163 120.529 145.616)" fill="#62bcf8"/>
<rect width="11" height="6" transform="matrix(0.645163 -0.764045 -0.764045 -0.645163 98.1514 141.117)" fill="#62bcf8"/>
<rect width="5" height="15" transform="matrix(0.645163 -0.764045 -0.764045 -0.645163 100.087 138.825)" fill="#62bcf8"/>
<rect x="205.524" y="168.959" width="9" height="20" transform="rotate(130.178 205.524 168.959)" fill="#62bcf8"/>
<rect x="184.437" y="162.932" width="9" height="20" transform="rotate(130.178 184.437 162.932)" fill="#62bcf8"/>
<rect x="163.35" y="156.905" width="9" height="20" transform="rotate(130.178 163.35 156.905)" fill="#62bcf8"/>
<rect x="142.262" y="150.878" width="9" height="20" transform="rotate(130.178 142.262 150.878)" fill="#62bcf8"/>
<rect x="121.175" y="144.852" width="9" height="20" transform="rotate(130.178 121.175 144.852)" fill="#62bcf8"/>
<rect x="100.087" y="138.825" width="9" height="20" transform="rotate(130.178 100.087 138.825)" fill="#62bcf8"/>
<rect x="214.76" y="127.022" width="9" height="20" transform="rotate(130.178 214.76 127.022)" fill="#62bcf8"/>
<rect x="205.285" y="107.242" width="9" height="20" transform="rotate(130.178 205.285 107.242)" fill="#62bcf8"/>
<rect x="195.811" y="87.4629" width="9" height="20" transform="rotate(130.178 195.811 87.4629)" fill="#62bcf8"/>
<rect x="186.336" y="67.6831" width="9" height="20" transform="rotate(130.178 186.336 67.6831)" fill="#62bcf8"/>
<rect x="176.861" y="47.9033" width="9" height="20" transform="rotate(130.178 176.861 47.9033)" fill="#62bcf8"/>
<!-- <rect width="12" height="12" fill="#62bcf8"/> -->
<rect width="12" height="12" fill="#62bcf8"/>

<rect x="264.522" y="179" width="12" height="12" transform="rotate(27.4009 264.522 179)" fill="#62bcf8"/>
<rect x="61" y="33" width="12" height="12" fill="#62bcf8"/>
<rect x="303.492" y="236.371" width="12" height="12" transform="rotate(27.4009 303.492 236.371)" fill="#62bcf8"/>
<rect x="90" y="33" width="12" height="12" fill="#62bcf8"/>
<rect x="329.238" y="249.717" width="12" height="12" transform="rotate(27.4009 329.238 249.717)" fill="#62bcf8"/>
<rect x="90" y="68" width="12" height="12" fill="#62bcf8"/>
<rect x="313.131" y="280.791" width="12" height="12" transform="rotate(27.4009 313.131 280.791)" fill="#62bcf8"/>
</svg>
