<svg version="1.1" id="Layer_1" xmlns="http://www.w3.org/2000/svg" xmlns:xlink="http://www.w3.org/1999/xlink" x="0px" y="0px"
	 width="100%" viewBox="0 0 990 810" enable-background="new 0 0 990 810" xml:space="preserve" fill="#BD2C27">
<path opacity="1.000000" stroke="none" 
	d="
M181.340576,810.670898 
	C122.547417,811.000000 64.094620,810.937805 5.642661,811.128174 
	C1.366859,811.142151 0.899061,809.985046 0.902920,806.149841 
	C1.021723,688.079102 1.000000,570.008179 1.000000,451.468658 
	C2.972701,448.340485 5.857214,448.493317 8.698689,448.494598 
	C30.528612,448.504303 52.358566,448.521545 74.188454,448.489105 
	C86.970299,448.470093 88.471581,446.946747 88.490517,434.017670 
	C88.521996,412.520905 88.493057,391.024078 88.502525,369.527283 
	C88.507378,358.505463 88.514626,358.496094 99.310555,358.497467 
	C120.640694,358.500183 141.970825,358.501129 163.300964,358.495697 
	C165.799698,358.495087 168.307602,358.586853 170.789749,358.240509 
	C175.511871,357.581665 177.525726,355.587646 178.217010,350.886932 
	C178.581772,348.406616 178.494171,345.898224 178.495300,343.399506 
	C178.505096,321.736084 178.496017,300.072632 178.503891,278.409210 
	C178.504547,276.577209 178.495911,274.745453 178.614563,272.913940 
	C178.805908,269.960724 180.316391,268.506470 183.307892,268.539154 
	C185.130264,268.559021 186.954453,268.493195 188.778168,268.494232 
	C210.274948,268.506470 231.771713,268.500336 253.268494,268.495972 
	C255.767380,268.495453 258.275513,268.586487 260.757874,268.246368 
	C265.483002,267.598938 267.528900,265.589874 268.217133,260.921112 
	C268.582672,258.441254 268.494110,255.932419 268.495514,253.433548 
	C268.507935,231.270187 268.473236,209.106812 268.515381,186.943497 
	C268.530457,179.030334 269.048737,178.520004 277.118225,178.514969 
	C329.110413,178.482483 381.102600,178.511246 433.094788,178.495285 
	C447.263641,178.490936 448.490448,177.269806 448.494171,163.107849 
	C448.507599,112.115486 448.490753,61.123119 448.526276,10.130784 
	C448.528290,7.219651 447.826080,4.069720 450.663391,1.325458 
	C510.687561,1.000000 570.375122,1.000000 630.531372,1.000000 
	C633.722656,2.944992 633.504517,5.860530 633.503418,8.682789 
	C633.494934,30.497410 633.481812,52.312054 633.510437,74.126640 
	C633.527222,86.940620 635.061218,88.481972 647.911682,88.488853 
	C699.867554,88.516685 751.823486,88.492271 803.779358,88.504608 
	C813.475952,88.506912 813.491455,88.523598 813.496582,98.277718 
	C813.507751,119.592964 813.498535,140.908203 813.501282,162.223450 
	C813.501587,164.221680 813.473267,166.220963 813.565796,168.217529 
	C813.921631,175.896530 816.190308,178.121704 824.010742,178.441711 
	C826.506836,178.543869 829.005920,178.499100 831.503723,178.499130 
	C881.627808,178.499649 931.751892,178.489822 981.875977,178.528671 
	C984.780273,178.530914 987.933960,177.803284 990.672729,180.661438 
	C991.000000,240.687561 991.000000,300.375122 991.000000,360.531342 
	C988.890259,363.869110 985.781738,363.490051 982.808716,363.491333 
	C944.645142,363.507843 906.481567,363.494629 868.317993,363.501282 
	C854.152466,363.503754 839.986450,363.424469 825.821472,363.535156 
	C815.661194,363.614532 813.575012,365.712646 813.533264,376.000488 
	C813.439209,399.164917 813.524109,422.329773 813.491272,445.494415 
	C813.480652,452.972229 813.008118,453.477112 805.566589,453.482361 
	C753.570618,453.518982 701.574646,453.490112 649.578674,453.503571 
	C634.473450,453.507477 633.507202,454.488464 633.502991,469.740753 
	C633.496948,491.738434 633.511597,513.736084 633.495728,535.733765 
	C633.490479,543.037842 633.043640,543.488220 625.627441,543.489929 
	C569.298523,543.502502 512.969604,543.520203 456.640717,543.481323 
	C449.134552,543.476135 448.516174,542.842773 448.512451,535.191101 
	C448.487213,483.195129 448.508209,431.199188 448.495361,379.203217 
	C448.491760,364.697388 447.309753,363.516174 432.873016,363.504608 
	C414.541107,363.489899 396.209198,363.492706 377.877289,363.507416 
	C375.378876,363.509430 372.875275,363.464874 370.397614,363.891724 
	C366.664154,364.534912 364.484833,366.720001 363.873108,370.464478 
	C363.440765,373.110901 363.507721,375.781097 363.506348,378.445648 
	C363.494965,400.610535 363.514587,422.775452 363.493500,444.940338 
	C363.485718,453.099091 363.113342,453.482971 355.123199,453.491882 
	C333.458344,453.516022 311.793427,453.499268 290.128540,453.501495 
	C287.795532,453.501740 285.460083,453.450348 283.130707,453.597015 
	C276.286011,454.028015 273.873871,456.299774 273.628967,463.200073 
	C273.280243,473.026306 273.524567,482.863007 273.506073,492.695160 
	C273.480042,506.527405 273.514954,520.359680 273.493073,534.191956 
	C273.478546,543.392456 273.377747,543.489685 263.942017,543.495605 
	C242.777023,543.508789 221.612015,543.498230 200.447021,543.500916 
	C198.280579,543.501160 196.112991,543.466797 193.948212,543.559814 
	C186.198227,543.892761 183.918472,546.155823 183.568222,553.881409 
	C183.447433,556.545593 183.501160,559.213562 183.501236,561.879883 
	C183.503601,641.707031 183.499908,721.534119 183.476242,801.361267 
	C183.475327,804.430908 184.275391,807.751831 181.340576,810.670898 
z"/>
</svg>